<svg width="54" height="80" viewBox="0 0 54 80" fill="none" xmlns="http://www.w3.org/2000/svg">
<path d="M0.146991 75.1462C-0.0482769 75.3416 -0.0485379 75.6584 0.146406 75.8538L3.32319 79.0384C3.51813 79.2338 3.83446 79.2338 4.02972 79.0384C4.22499 78.843 4.22525 78.5261 4.03031 78.3307L1.2065 75.5L4.03498 72.6693C4.23025 72.4739 4.23051 72.157 4.03557 71.9616C3.84062 71.7662 3.5243 71.7662 3.32903 71.9616L0.146991 75.1462ZM22.3921 0.988689C41.3863 5.18217 53.6088 23.6968 52.2521 41.1491C51.5752 49.8557 47.5178 58.3 39.2149 64.5772C30.9045 70.8602 18.3023 74.9996 0.500378 74.9996L0.499553 76.0004C18.4477 76.0004 31.2831 71.8273 39.8165 65.3759C48.3574 58.9187 52.5501 50.2067 53.2483 41.2259C54.6416 23.3032 42.1141 4.31784 22.608 0.0113332L22.3921 0.988689Z" fill="#80FF6B"/>
</svg>
