<svg width="36" height="102" viewBox="0 0 36 102" fill="none" xmlns="http://www.w3.org/2000/svg">
<path d="M0.54493 97.1608C0.380124 97.6874 0.674123 98.2484 1.20159 98.4138L9.79722 101.11C10.3247 101.275 10.8859 100.983 11.0507 100.456C11.2155 99.9296 10.9215 99.3686 10.394 99.2031L2.75348 96.8065L5.14073 89.179C5.30554 88.6524 5.01154 88.0914 4.48407 87.926C3.9566 87.7605 3.3954 88.0533 3.23059 88.5799L0.54493 97.1608ZM7.30713 1.86309C18.6174 8.06907 25.7174 16.0921 29.5779 24.847C33.4421 33.6101 34.0902 43.1745 32.3789 52.4974C28.9487 71.1842 16.0716 88.7311 1.03567 96.5744L1.96433 98.3464C17.5804 90.2005 30.8134 72.1125 34.3473 52.8609C36.118 43.2146 35.4616 33.2339 31.4091 24.0438C27.3531 14.8455 19.9245 6.50728 8.26853 0.111608L7.30713 1.86309Z" fill="#80FF6B"/>
</svg>
