<svg width="55" height="107" viewBox="0 0 55 107" fill="none" xmlns="http://www.w3.org/2000/svg">
<path d="M31.9974 2.0696C32.0358 1.51865 31.6203 1.04086 31.0694 1.00242L22.0912 0.376047C21.5403 0.33761 21.0625 0.753079 21.024 1.30402C20.9856 1.85497 21.4011 2.33276 21.952 2.3712L29.9326 2.92798L29.3758 10.9086C29.3374 11.4595 29.7529 11.9373 30.3038 11.9758C30.8548 12.0142 31.3326 11.5987 31.371 11.0478L31.9974 2.0696ZM54.308 104.549C28.5425 96.209 14.4228 85.6569 7.59145 74.6674C0.783531 63.7156 1.10701 52.1523 4.63661 41.5021C8.17378 30.829 14.9132 21.1443 20.8058 14.1027C23.7469 10.5881 26.4652 7.7459 28.4466 5.78381C29.4371 4.80301 30.2428 4.04279 30.7993 3.52914C31.0775 3.27234 31.2934 3.07722 31.4389 2.94703C31.5116 2.88194 31.5667 2.83309 31.6033 2.80088C31.6215 2.78478 31.6351 2.77284 31.644 2.76511C31.6484 2.76124 31.6516 2.75843 31.6536 2.75668C31.6546 2.7558 31.6552 2.75528 31.6557 2.75484C31.656 2.75459 31.656 2.75461 30.9998 2C30.3436 1.24539 30.343 1.24594 30.3421 1.24676C30.3413 1.24738 30.3401 1.24847 30.3387 1.24972C30.3358 1.25223 30.3317 1.2558 30.3264 1.26043C30.3158 1.26969 30.3005 1.28318 30.2804 1.30084C30.2404 1.33618 30.1816 1.38825 30.1052 1.45662C29.9524 1.59338 29.7289 1.79541 29.4428 2.05948C28.8706 2.58758 28.0479 3.36398 27.0393 4.36267C25.0227 6.35957 22.2606 9.24782 19.272 12.8192C13.3052 19.9494 6.38842 29.8585 2.73815 40.8729C-0.919702 51.9102 -1.31491 64.1282 5.89288 75.7233C13.0772 87.2806 27.7076 98.041 53.6922 106.451L54.308 104.549Z" fill="#80FF6B"/>
</svg>
