<svg width="339" height="141" viewBox="0 0 339 141" fill="none" xmlns="http://www.w3.org/2000/svg">
<path d="M338.5 109.5C338.5 111.479 337.423 113.478 335.22 115.478C333.019 117.478 329.743 119.43 325.479 121.303C316.953 125.049 304.585 128.435 289.263 131.282C258.628 136.976 216.285 140.5 169.5 140.5C122.715 140.5 80.3719 136.976 49.7368 131.282C34.4151 128.435 22.047 125.049 13.5213 121.303C9.25661 119.43 5.98127 117.478 3.77979 115.478C1.57706 113.478 0.5 111.479 0.5 109.5C0.5 107.521 1.57706 105.522 3.77979 103.522C5.98127 101.522 9.25661 99.5703 13.5213 97.6965C22.047 93.9505 34.4151 90.5651 49.7368 87.7177C80.3719 82.0245 122.715 78.5 169.5 78.5C216.285 78.5 258.628 82.0245 289.263 87.7177C304.585 90.5651 316.953 93.9505 325.479 97.6965C329.743 99.5703 333.019 101.522 335.22 103.522C337.423 105.522 338.5 107.521 338.5 109.5Z" fill="black" stroke="white"/>
<path d="M338.5 70.5C338.5 72.4787 337.423 74.4777 335.22 76.4782C333.019 78.4776 329.743 80.4297 325.479 82.3035C316.953 86.0495 304.585 89.4349 289.263 92.2823C258.628 97.9755 216.285 101.5 169.5 101.5C122.715 101.5 80.3719 97.9755 49.7368 92.2823C34.4151 89.4349 22.047 86.0495 13.5213 82.3035C9.25661 80.4297 5.98127 78.4776 3.77979 76.4782C1.57706 74.4777 0.5 72.4787 0.5 70.5C0.5 68.5213 1.57706 66.5223 3.77979 64.5218C5.98127 62.5224 9.25661 60.5703 13.5213 58.6965C22.047 54.9505 34.4151 51.5651 49.7368 48.7177C80.3719 43.0245 122.715 39.5 169.5 39.5C216.285 39.5 258.628 43.0245 289.263 48.7177C304.585 51.5651 316.953 54.9505 325.479 58.6965C329.743 60.5703 333.019 62.5224 335.22 64.5218C337.423 66.5223 338.5 68.5213 338.5 70.5Z" fill="black" stroke="white"/>
<path d="M338.5 31.5C338.5 33.4787 337.423 35.4777 335.22 37.4782C333.019 39.4776 329.743 41.4297 325.479 43.3035C316.953 47.0495 304.585 50.4349 289.263 53.2823C258.628 58.9755 216.285 62.5 169.5 62.5C122.715 62.5 80.3719 58.9755 49.7368 53.2823C34.4151 50.4349 22.047 47.0495 13.5213 43.3035C9.25661 41.4297 5.98127 39.4776 3.77979 37.4782C1.57706 35.4777 0.5 33.4787 0.5 31.5C0.5 29.5213 1.57706 27.5223 3.77979 25.5218C5.98127 23.5224 9.25661 21.5703 13.5213 19.6965C22.047 15.9505 34.4151 12.5651 49.7368 9.71772C80.3719 4.02446 122.715 0.5 169.5 0.5C216.285 0.5 258.628 4.02446 289.263 9.71772C304.585 12.5651 316.953 15.9505 325.479 19.6965C329.743 21.5703 333.019 23.5224 335.22 25.5218C337.423 27.5223 338.5 29.5213 338.5 31.5Z" fill="black" stroke="white"/>
</svg>
