<svg width="109" height="91" viewBox="0 0 109 91" fill="none" xmlns="http://www.w3.org/2000/svg">
<path d="M90.9833 81.8527C90.7454 82.2387 90.269 82.5437 89.4469 82.6962C88.6265 82.8485 87.5301 82.8342 86.1706 82.6422C83.4554 82.2587 79.8099 81.1843 75.4791 79.5013C66.8253 76.1383 55.5294 70.3827 43.6496 63.0285C31.7698 55.6744 21.5775 48.1278 14.7027 41.8778C11.2621 38.75 8.67148 35.964 7.11362 33.7023C6.33358 32.5698 5.83 31.5936 5.59849 30.7901C5.3665 29.985 5.42524 29.4215 5.6631 29.0355C5.90095 28.6495 6.37736 28.3446 7.19948 28.192C8.0199 28.0398 9.11623 28.054 10.4758 28.246C13.191 28.6296 16.8364 29.7039 21.1672 31.3869C29.8211 34.7499 41.1169 40.5056 52.9967 47.8597C64.8766 55.2139 75.0689 62.7604 81.9437 69.0104C85.3842 72.1382 87.9749 74.9243 89.5328 77.186C90.3128 78.3185 90.8164 79.2946 91.0479 80.0981C91.2799 80.9032 91.2211 81.4667 90.9833 81.8527Z" fill="black" stroke="white"/>
<path d="M97.0852 71.9552C96.8474 72.3412 96.371 72.6461 95.5489 72.7987C94.7284 72.951 93.6321 72.9367 92.2726 72.7447C89.5573 72.3612 85.9119 71.2868 81.5811 69.6038C72.9273 66.2407 61.6315 60.4851 49.7517 53.1309C37.8719 45.7767 27.6796 38.2301 20.8047 31.9801C17.3642 28.8523 14.7736 26.0663 13.2157 23.8045C12.4357 22.6721 11.9321 21.6959 11.7006 20.8924C11.4686 20.0873 11.5273 19.5238 11.7652 19.1378C12.003 18.7518 12.4794 18.4469 13.3015 18.2943C14.122 18.142 15.2183 18.1563 16.5778 18.3483C19.2931 18.7318 22.9385 19.8062 27.2693 21.4892C35.9231 24.8522 47.2189 30.6079 59.0987 37.9621C70.9785 45.3163 81.1708 52.8629 88.0457 59.1129C91.4862 62.2407 94.0768 65.0267 95.6347 67.2885C96.4147 68.4209 96.9183 69.3971 97.1498 70.2006C97.3818 71.0057 97.3231 71.5692 97.0852 71.9552Z" fill="black" stroke="white"/>
<path d="M103.189 62.0572C102.951 62.4432 102.475 62.7482 101.653 62.9007C100.832 63.053 99.7359 63.0388 98.3763 62.8467C95.6611 62.4632 92.0157 61.3889 87.6849 59.7059C79.031 56.3429 67.7351 50.5873 55.8552 43.2332C43.9754 35.8791 33.7831 28.3326 26.9082 22.0827C23.4677 18.9549 20.877 16.1688 19.3192 13.9071C18.5391 12.7747 18.0355 11.7985 17.804 10.995C17.572 10.1899 17.6308 9.62643 17.8686 9.24043C18.1065 8.85443 18.5829 8.54949 19.405 8.39692C20.2254 8.24466 21.3218 8.2589 22.6813 8.45093C25.3966 8.83444 29.042 9.9088 33.3728 11.5918C42.0267 14.9548 53.3226 20.7104 65.2024 28.0645C77.0823 35.4186 87.2746 42.9651 94.1495 49.215C97.59 52.3428 100.181 55.1288 101.739 57.3905C102.519 58.523 103.022 59.4992 103.254 60.3026C103.486 61.1077 103.427 61.6712 103.189 62.0572Z" fill="black" stroke="white"/>
</svg>
