<svg width="63" height="26" viewBox="0 0 63 26" fill="none" xmlns="http://www.w3.org/2000/svg">
<path d="M61.7818 20.0788C61.7821 20.2817 61.6738 20.547 61.3149 20.8731C60.9573 21.198 60.4011 21.5349 59.6381 21.8699C58.1157 22.5384 55.8811 23.1521 53.0808 23.6715C47.4886 24.7088 39.7406 25.3524 31.1668 25.3502C22.593 25.348 14.8428 24.7005 9.24678 23.6604C6.44468 23.1396 4.20782 22.5248 2.683 21.8556C1.91881 21.5202 1.36141 21.183 1.00264 20.8579C0.642585 20.5317 0.533245 20.2662 0.53288 20.0634C0.532514 19.8606 0.640897 19.5952 0.999775 19.2691C1.35738 18.9442 1.91355 18.6073 2.67654 18.2723C4.19895 17.6038 6.43359 16.9902 9.23382 16.4708C14.8261 15.4335 22.574 14.7899 31.1478 14.7921C39.7216 14.7942 47.4719 15.4417 53.0679 16.4818C55.87 17.0027 58.1068 17.6174 59.6317 18.2867C60.3959 18.6221 60.9532 18.9592 61.312 19.2843C61.6721 19.6106 61.7814 19.876 61.7818 20.0788Z" fill="black" stroke="white"/>
<path d="M61.7706 12.9371C61.7709 13.1399 61.6625 13.4053 61.3037 13.7314C60.9461 14.0563 60.3899 14.3932 59.6269 14.7282C58.1045 15.3966 55.8699 16.0103 53.0696 16.5297C47.4774 17.5669 39.7294 18.2105 31.1556 18.2083C22.5818 18.2062 14.8316 17.5586 9.23557 16.5185C6.43347 15.9977 4.19661 15.3829 2.67179 14.7137C1.90759 14.3783 1.3502 14.0411 0.991424 13.716C0.631369 13.3898 0.522029 13.1243 0.521663 12.9215C0.521297 12.7187 0.629679 12.4533 0.988556 12.1272C1.34616 11.8023 1.90233 11.4654 2.66532 11.1304C4.18772 10.4619 6.42236 9.8483 9.22259 9.3289C14.8148 8.29163 22.5628 7.64805 31.1366 7.65024C39.7104 7.65242 47.4607 8.29994 53.0567 9.34005C55.8588 9.86088 58.0956 10.4757 59.6204 11.1449C60.3846 11.4803 60.942 11.8175 61.3008 12.1426C61.6609 12.4688 61.7702 12.7343 61.7706 12.9371Z" fill="black" stroke="white"/>
<path d="M61.7598 5.79434C61.7601 5.99717 61.6518 6.26254 61.2929 6.58862C60.9353 6.91354 60.3791 7.25043 59.6161 7.58545C58.0937 8.25392 55.8591 8.86758 53.0588 9.387C47.4666 10.4243 39.7186 11.0679 31.1448 11.0658C22.571 11.0637 14.8208 10.4162 9.22476 9.37615C6.42266 8.85535 4.18581 8.24058 2.661 7.57136C1.8968 7.23596 1.33941 6.89879 0.980636 6.57369C0.620584 6.24743 0.511246 5.98201 0.510881 5.77918C0.510516 5.57636 0.6189 5.31098 0.977779 4.9849C1.33538 4.65998 1.89156 4.32309 2.65455 3.98807C4.17696 3.3196 6.4116 2.70594 9.21183 2.18652C14.8041 1.14921 22.552 0.505581 31.1258 0.507702C39.6996 0.509824 47.4499 1.15729 53.0459 2.19737C55.848 2.71817 58.0849 3.33294 59.6097 4.00217C60.3739 4.33756 60.9313 4.67473 61.29 4.99983C61.6501 5.32609 61.7594 5.59151 61.7598 5.79434Z" fill="black" stroke="white"/>
</svg>
