<svg width="1198" height="85" viewBox="0 0 1198 85" fill="none" xmlns="http://www.w3.org/2000/svg">
<path d="M9.67952 47.3751C8.69393 46.8718 7.9154 46.2122 7.34393 45.3964C6.77246 44.5805 6.45503 43.6923 6.39165 42.7317C6.33433 41.7593 6.54521 40.804 7.02427 39.8659C7.50334 38.9278 8.15054 38.2029 8.96587 37.691C9.78121 37.1792 10.6809 36.9125 11.665 36.8911C12.661 36.8757 13.6577 37.1227 14.6551 37.6321C15.5932 38.1112 16.3155 38.7196 16.8221 39.4573C17.3405 40.2012 17.5959 41.0203 17.5883 41.9147L15.369 42.0389C15.3202 41.4601 15.1426 40.9577 14.8362 40.5317C14.5477 40.0999 14.16 39.7597 13.6731 39.511C12.8419 39.0866 12.0137 39.0079 11.1885 39.2752C10.3694 39.5306 9.72943 40.1096 9.26856 41.012C8.80768 41.9145 8.70495 42.7753 8.96035 43.5944C9.23369 44.4077 9.79191 45.0296 10.635 45.4602C11.1219 45.7088 11.6217 45.8293 12.1346 45.8218C12.6654 45.8084 13.1796 45.6518 13.6771 45.3519L14.8776 47.2226C14.1457 47.7471 13.3234 48.0233 12.4108 48.0513C11.5162 48.0735 10.6057 47.8481 9.67952 47.3751Z" fill="white"/>
<path d="M26.6682 54.6891C25.6412 54.3549 24.7878 53.8319 24.1081 53.1199C23.4283 52.408 22.9818 51.5827 22.7684 50.644C22.5719 49.6967 22.6366 48.7222 22.9625 47.7205C23.2884 46.7189 23.8074 45.8993 24.5196 45.2617C25.2445 44.6282 26.0913 44.2237 27.0598 44.0481C28.0283 43.8724 29.0261 43.9517 30.0531 44.2859C31.0928 44.6241 31.9525 45.1492 32.6322 45.8612C33.312 46.5731 33.7522 47.3963 33.9529 48.331C34.1662 49.2697 34.11 50.2399 33.7841 51.2415C33.4582 52.2432 32.9307 53.0671 32.2017 53.7132C31.4894 54.3508 30.6491 54.7574 29.6805 54.933C28.712 55.1087 27.7079 55.0273 26.6682 54.6891ZM27.3303 52.6541C28.2052 52.9387 29.0228 52.8822 29.7831 52.4846C30.5434 52.087 31.0783 51.4128 31.3877 50.4619C31.6971 49.5109 31.6614 48.651 31.2806 47.8821C30.8998 47.1133 30.272 46.5865 29.3972 46.3018C28.5223 46.0172 27.7047 46.0737 26.9444 46.4713C26.1967 46.873 25.6682 47.5493 25.3588 48.5002C25.0494 49.4512 25.0788 50.309 25.4469 51.0738C25.8277 51.8426 26.4555 52.3694 27.3303 52.6541Z" fill="white"/>
<path d="M49.6164 55.261C50.8091 55.9537 51.2553 56.9359 50.9549 58.2076C50.7343 59.1419 50.2138 59.7793 49.3936 60.1199C48.5733 60.4605 47.4755 60.4684 46.1 60.1435L40.8056 58.8931L43.2604 48.4991L48.3407 49.6989C49.6123 49.9992 50.5499 50.4672 51.1532 51.103C51.7566 51.7387 51.9572 52.4847 51.7549 53.3412C51.6292 53.8732 51.3777 54.3001 51.0003 54.622C50.6358 54.9469 50.1745 55.16 49.6164 55.261ZM44.5516 53.3867L47.1014 53.9889C48.3601 54.2862 49.0921 54.0001 49.2975 53.1307C49.4967 52.2872 48.9669 51.7169 47.7082 51.4196L45.1584 50.8174L44.5516 53.3867ZM46.3237 58.3263C47.6602 58.6419 48.4312 58.3651 48.6365 57.4956C48.7438 57.0415 48.6677 56.6673 48.4084 56.3732C48.1521 56.066 47.6931 55.8343 47.0313 55.678L44.17 55.0023L43.5402 57.6689L46.3237 58.3263Z" fill="white"/>
<path d="M66.486 53.449C67.5095 53.6336 68.3812 54.0211 69.1012 54.6116C69.8343 55.2044 70.3571 55.949 70.6696 56.8454C70.9822 57.7417 71.0426 58.7213 70.851 59.7842C70.6593 60.8471 70.2593 61.7504 69.651 62.4943C69.045 63.225 68.295 63.7401 67.401 64.0395C66.5201 64.3413 65.568 64.3999 64.5445 64.2153C63.1273 63.9598 62.0906 63.2851 61.4343 62.1912L60.515 67.289L58.0547 66.8453L60.6386 52.5165L62.9809 52.9388L62.7324 54.3166C63.2291 53.8913 63.7952 53.6073 64.4306 53.4645C65.0792 53.324 65.7643 53.3188 66.486 53.449ZM64.6487 62.0596C65.5541 62.2229 66.3499 62.0548 67.0361 61.5553C67.7354 61.0582 68.1738 60.3176 68.3513 59.3334C68.5287 58.3493 68.3767 57.5022 67.895 56.7921C67.4265 56.0844 66.7396 55.6489 65.8342 55.4856C65.2437 55.3792 64.6874 55.4211 64.1654 55.6115C63.6457 55.7887 63.2031 56.1018 62.8376 56.5507C62.4721 56.9997 62.2302 57.5522 62.1119 58.2083C61.9936 58.8644 62.0273 59.4666 62.2129 60.0149C62.3985 60.5632 62.7027 61.0177 63.1254 61.3785C63.5504 61.7261 64.0582 61.9531 64.6487 62.0596Z" fill="white"/>
<path d="M88.7252 62.6147C88.7008 62.7863 88.6528 63.0286 88.5813 63.3417L80.285 62.1607C80.3193 62.9602 80.6072 63.6341 81.1487 64.1826C81.7052 64.7197 82.4389 65.0531 83.3497 65.1828C84.5113 65.3481 85.5228 65.1015 86.3842 64.443L87.4938 66.1565C86.9378 66.6564 86.2761 67 85.5088 67.187C84.7414 67.3741 83.9023 67.4028 82.9915 67.2731C81.8299 67.1078 80.8398 66.7312 80.0211 66.1433C79.2024 65.5554 78.6072 64.8174 78.2353 63.9295C77.8784 63.0302 77.7742 62.0592 77.9227 61.0164C78.0692 59.9867 78.4318 59.0956 79.0103 58.343C79.6039 57.579 80.3493 57.0252 81.2467 56.6816C82.1441 56.3379 83.1142 56.2403 84.157 56.3888C85.1867 56.5353 86.0712 56.8969 86.8106 57.4736C87.5652 58.0389 88.1077 58.7693 88.4381 59.6648C88.7836 60.5489 88.8793 61.5323 88.7252 62.6147ZM83.8752 58.3688C83.0832 58.2561 82.3761 58.3978 81.7541 58.7941C81.1471 59.1791 80.7288 59.7525 80.4991 60.5144L86.4986 61.3685C86.502 60.5878 86.2669 59.9214 85.7934 59.3691C85.3198 58.8169 84.6804 58.4834 83.8752 58.3688Z" fill="white"/>
<path d="M107.022 70.1973L107.807 63.161L103.568 68.6847L102.495 68.5649L99.6403 62.229L98.8524 69.2851L96.5865 69.0321L97.7716 58.4181L100.375 58.7088L103.411 65.7692L108.107 59.5721L110.433 59.8318L109.268 70.4481L107.022 70.1973Z" fill="white"/>
<path d="M126.819 66.8456C126.803 67.0183 126.768 67.2628 126.713 67.5792L118.366 66.8357C118.443 67.6322 118.765 68.2901 119.335 68.8094C119.919 69.3165 120.669 69.6109 121.585 69.6926C122.754 69.7967 123.751 69.4973 124.577 68.7944L125.775 70.4472C125.246 70.9757 124.603 71.3535 123.847 71.5806C123.09 71.8078 122.254 71.8805 121.338 71.7989C120.169 71.6948 119.16 71.3707 118.312 70.8266C117.464 70.2825 116.83 69.5769 116.412 68.7097C116.009 67.8304 115.854 66.8662 115.947 65.817C116.039 64.7811 116.355 63.8722 116.893 63.0902C117.445 62.2961 118.161 61.7039 119.039 61.3136C119.917 60.9233 120.881 60.7748 121.93 60.8683C122.966 60.9606 123.868 61.2752 124.637 61.8122C125.42 62.3371 126 63.038 126.377 63.9149C126.768 64.7797 126.916 65.7566 126.819 66.8456ZM121.752 62.8604C120.955 62.7894 120.257 62.9681 119.656 63.3966C119.071 63.8129 118.683 64.4075 118.494 65.1804L124.53 65.7181C124.492 64.9384 124.222 64.2852 123.72 63.7586C123.218 63.232 122.562 62.9326 121.752 62.8604Z" fill="white"/>
<path d="M135.059 62.1544L137.553 62.3309L137.246 66.6601L142.613 67.0399L142.919 62.7108L145.413 62.8873L144.659 73.5406L142.165 73.3641L142.463 69.1546L137.097 68.7748L136.799 72.9842L134.305 72.8077L135.059 62.1544Z" fill="white"/>
<path d="M154.387 63.5091L156.883 63.6451L156.647 67.9787L162.019 68.2714L162.255 63.9378L164.751 64.0738L164.17 74.738L161.674 74.602L161.904 70.3883L156.532 70.0956L156.302 74.3093L153.806 74.1733L154.387 63.5091Z" fill="white"/>
<path d="M180.342 68.3426C181.701 68.3951 182.729 68.7418 183.424 69.3825C184.12 70.0232 184.446 70.9031 184.403 72.0223C184.358 73.1947 183.923 74.0853 183.099 74.6939C182.288 75.303 181.157 75.5728 179.705 75.5033L174.869 75.2962L175.282 64.6242L177.78 64.7208L177.645 68.2182L180.342 68.3426ZM186.054 65.0409L188.552 65.1375L188.139 75.8095L185.641 75.7129L186.054 65.0409ZM179.556 73.6562C180.289 73.6978 180.854 73.5663 181.253 73.2615C181.652 72.9566 181.863 72.4978 181.887 71.8849C181.91 71.2854 181.74 70.8385 181.378 70.5443C181.016 70.25 180.455 70.0816 179.696 70.0389L177.579 69.9369L177.439 73.5542L179.556 73.6562Z" fill="white"/>
<path d="M205.095 71.0436C205.09 71.2168 205.07 71.4631 205.035 71.7823L196.658 71.5621C196.784 72.3523 197.147 72.9888 197.748 73.4714C198.363 73.941 199.13 74.1879 200.05 74.2121C201.223 74.2429 202.199 73.8818 202.979 73.1287L204.278 74.7034C203.783 75.2639 203.165 75.6811 202.425 75.9551C201.684 76.2291 200.854 76.354 199.934 76.3298C198.761 76.299 197.734 76.0386 196.853 75.5486C195.973 75.0586 195.297 74.394 194.825 73.5546C194.367 72.7023 194.152 71.7496 194.18 70.6967C194.207 69.657 194.465 68.7302 194.953 67.916C195.455 67.0889 196.132 66.4532 196.984 66.0087C197.836 65.5643 198.789 65.3559 199.841 65.3836C200.881 65.4109 201.801 65.6685 202.602 66.1564C203.417 66.6313 204.039 67.2945 204.47 68.1462C204.915 68.9848 205.123 69.9506 205.095 71.0436ZM199.789 67.3829C198.989 67.3619 198.303 67.5839 197.731 68.0491C197.172 68.5012 196.822 69.1189 196.682 69.9021L202.74 70.0614C202.653 69.2855 202.343 68.6504 201.809 68.1563C201.275 67.6621 200.602 67.4043 199.789 67.3829Z" fill="white"/>
<path d="M223.312 68.1258L219.573 68.0672L219.439 76.6261L216.939 76.587L217.073 68.028L213.314 67.9692L213.347 65.8494L223.346 66.006L223.312 68.1258Z" fill="white"/>
<path d="M239.882 71.5722C239.881 71.7456 239.866 71.9922 239.837 72.312L231.458 72.2574C231.599 73.045 231.975 73.6741 232.585 74.1448C233.209 74.6022 233.981 74.8339 234.901 74.8399C236.074 74.8475 237.043 74.4672 237.808 73.6988L239.138 75.2475C238.654 75.8177 238.045 76.2471 237.31 76.5356C236.575 76.8242 235.747 76.9654 234.827 76.9594C233.654 76.9518 232.622 76.7117 231.732 76.2393C230.841 75.7668 230.152 75.1156 229.664 74.2858C229.19 73.4427 228.956 72.4945 228.963 71.4411C228.97 70.4012 229.209 69.4694 229.681 68.6458C230.166 67.8089 230.831 67.1599 231.674 66.6987C232.517 66.2375 233.465 66.0103 234.518 66.0172C235.558 66.024 236.483 66.2633 237.294 66.7353C238.117 67.194 238.753 67.8448 239.201 68.6877C239.662 69.5174 239.889 70.4789 239.882 71.5722ZM234.505 68.0172C233.705 68.012 233.024 68.2475 232.461 68.7239C231.911 69.187 231.573 69.8114 231.448 70.5973L237.508 70.6368C237.407 69.8628 237.084 69.234 236.54 68.7504C235.997 68.2669 235.319 68.0225 234.505 68.0172Z" fill="white"/>
<path d="M253.172 76.8793L250.423 73.1854L247.672 76.8916L244.912 76.8978L249.06 71.4685L245.068 66.2174L247.848 66.2112L250.476 69.7053L253.088 66.1994L255.788 66.1934L251.8 71.4223L255.992 76.8729L253.172 76.8793Z" fill="white"/>
<path d="M264.887 66.1651L267.387 66.1363L267.437 70.4761L272.817 70.4142L272.767 66.0745L275.266 66.0457L275.389 76.725L272.889 76.7537L272.841 72.534L267.461 72.5959L267.51 76.8156L265.01 76.8444L264.887 66.1651Z" fill="white"/>
<path d="M288.732 76.6608C287.652 76.6829 286.674 76.4695 285.798 76.0207C284.922 75.5718 284.229 74.9392 283.719 74.1228C283.222 73.2928 282.963 72.3512 282.941 71.2981C282.92 70.245 283.14 69.3003 283.603 68.464C284.08 67.6274 284.746 66.967 285.603 66.4827C286.46 65.9984 287.429 65.7452 288.508 65.7231C289.601 65.7007 290.586 65.914 291.462 66.3628C292.338 66.8116 293.024 67.4444 293.521 68.2611C294.031 69.0775 294.297 70.0122 294.319 71.0653C294.34 72.1185 294.113 73.07 293.637 73.9199C293.174 74.7562 292.514 75.4165 291.657 75.9008C290.8 76.3851 289.825 76.6384 288.732 76.6608ZM288.688 74.5212C289.608 74.5024 290.362 74.1803 290.949 73.5548C291.536 72.9293 291.82 72.1167 291.799 71.1169C291.779 70.1171 291.462 69.3167 290.85 68.7158C290.238 68.1149 289.472 67.8238 288.552 67.8426C287.632 67.8615 286.878 68.1836 286.291 68.8091C285.717 69.4343 285.44 70.2468 285.461 71.2466C285.481 72.2464 285.791 73.0469 286.39 73.6481C287.002 74.249 287.769 74.5401 288.688 74.5212Z" fill="white"/>
<path d="M312.641 65.2556L312.953 75.931L310.454 76.004L310.204 67.4476L306.206 67.5643L306.168 69.6863C306.142 71.101 306.044 72.2911 305.872 73.2565C305.713 74.2082 305.408 74.9707 304.958 75.5441C304.521 76.1038 303.902 76.3953 303.103 76.4186C302.73 76.4295 302.268 76.3696 301.717 76.239L301.776 74.1364C301.963 74.1709 302.124 74.1862 302.257 74.1824C302.764 74.1676 303.138 73.9566 303.379 73.5493C303.62 73.1288 303.766 72.6377 303.816 72.076C303.88 71.5005 303.922 70.6856 303.945 69.6312L304.005 65.5077L312.641 65.2556Z" fill="white"/>
<path d="M327.596 75.5907C326.517 75.6315 325.535 75.435 324.652 75.0014C323.768 74.5678 323.064 73.9473 322.54 73.1398C322.028 72.3185 321.753 71.3816 321.713 70.329C321.673 69.2764 321.878 68.328 322.326 67.4838C322.788 66.6391 323.443 65.9673 324.292 65.4682C325.14 64.9692 326.104 64.6993 327.183 64.6585C328.276 64.6173 329.264 64.8134 330.147 65.2471C331.031 65.6807 331.728 66.3015 332.239 67.1095C332.763 67.9169 333.045 68.8469 333.085 69.8995C333.125 70.9521 332.914 71.9074 332.453 72.7654C332.004 73.6096 331.356 74.2812 330.507 74.7803C329.659 75.2793 328.688 75.5495 327.596 75.5907ZM327.515 73.4523C328.434 73.4175 329.182 73.0824 329.759 72.4469C330.335 71.8113 330.605 70.9939 330.567 69.9946C330.529 68.9953 330.199 68.2006 329.576 67.6103C328.953 67.0201 328.182 66.7423 327.263 66.777C326.344 66.8117 325.596 67.1469 325.019 67.7824C324.456 68.4174 324.194 69.2346 324.231 70.2339C324.269 71.2332 324.593 72.0282 325.202 72.6189C325.825 73.2092 326.596 73.487 327.515 73.4523Z" fill="white"/>
<path d="M349.824 65.9658L344.13 66.2248L344.519 74.7759L342.022 74.8895L341.536 64.2206L349.728 63.848L349.824 65.9658Z" fill="white"/>
<path d="M356.704 63.5332L359.2 63.4005L359.574 70.4306L365.092 63.0872L367.368 62.9661L367.936 73.6311L365.439 73.7638L365.065 66.7337L359.567 74.076L357.271 74.1982L356.704 63.5332Z" fill="white"/>
<path d="M375.366 62.5419L377.861 62.3881L378.295 69.4147L383.75 62.0249L386.026 61.8846L386.683 72.5443L384.188 72.6982L383.755 65.6715L378.319 73.0601L376.023 73.2017L375.366 62.5419Z" fill="white"/>
<path d="M397.404 71.9972C396.951 72.0283 396.555 71.9018 396.215 71.6178C395.874 71.3205 395.687 70.9324 395.654 70.4535C395.62 69.9613 395.746 69.5518 396.031 69.2248C396.329 68.897 396.711 68.717 397.176 68.685C397.642 68.6531 398.038 68.7795 398.365 69.0645C398.705 69.3485 398.892 69.7366 398.926 70.2288C398.959 70.7076 398.827 71.1177 398.529 71.4588C398.231 71.7867 397.856 71.9662 397.404 71.9972Z" fill="white"/>
<path d="M420.344 68.0776L420.684 72.5648L418.35 72.7416L418.171 70.3684L409.954 70.9912L410.134 73.3644L407.821 73.5398L407.481 69.0526L407.979 69.0148C408.655 68.9369 409.081 68.47 409.257 67.6143C409.445 66.7442 409.52 65.5351 409.483 63.9868L409.346 60.3267L418.121 59.6615L418.768 68.1971L420.344 68.0776ZM411.77 63.9939C411.81 65.2211 411.786 66.2258 411.698 67.008C411.61 67.7902 411.388 68.3821 411.03 68.7836L416.275 68.386L415.789 61.9644L411.7 62.2743L411.77 63.9939Z" fill="white"/>
<path d="M433.133 69.3197C432.056 69.4108 431.067 69.2604 430.164 68.8686C429.261 68.4767 428.529 67.8897 427.967 67.1076C427.418 66.3111 427.099 65.3881 427.01 64.3385C426.922 63.2889 427.081 62.332 427.49 61.4678C427.912 60.6025 428.535 59.9007 429.359 59.3626C430.183 58.8245 431.133 58.5098 432.209 58.4187C433.299 58.3264 434.295 58.4762 435.198 58.8681C436.101 59.26 436.826 59.8475 437.374 60.6307C437.936 61.4128 438.261 62.3287 438.35 63.3782C438.439 64.4278 438.273 65.3919 437.852 66.2705C437.444 67.1348 436.827 67.8359 436.003 68.3741C435.179 68.9122 434.222 69.2274 433.133 69.3197ZM432.952 67.1873C433.869 67.1097 434.6 66.74 435.146 66.0782C435.692 65.4164 435.923 64.5873 435.839 63.5909C435.754 62.5944 435.387 61.816 434.738 61.2555C434.088 60.6949 433.305 60.4535 432.388 60.5311C431.472 60.6088 430.74 60.9785 430.194 61.6402C429.661 62.3009 429.437 63.1294 429.521 64.1259C429.606 65.1223 429.966 65.9013 430.602 66.463C431.252 67.0235 432.035 67.2649 432.952 67.1873Z" fill="white"/>
<path d="M455.894 56.4338L456.892 67.0671L454.403 67.3007L453.603 58.7782L449.62 59.1519L449.719 61.272C449.784 62.6854 449.763 63.8793 449.653 64.8538C449.556 65.8138 449.301 66.5943 448.889 67.1955C448.488 67.7821 447.89 68.1128 447.093 68.1876C446.722 68.2224 446.257 68.1924 445.699 68.0975L445.622 65.9954C445.812 66.0178 445.973 66.0228 446.106 66.0103C446.61 65.963 446.97 65.7284 447.185 65.3064C447.398 64.8712 447.512 64.3718 447.526 63.808C447.552 63.2297 447.543 62.4137 447.497 61.36L447.291 57.2412L455.894 56.4338Z" fill="white"/>
<path d="M472.57 56.9163L466.9 57.4975L467.773 66.0129L465.286 66.2678L464.197 55.6435L472.354 54.8074L472.57 56.9163Z" fill="white"/>
<path d="M484.632 64.3919C483.559 64.5116 482.565 64.3875 481.652 64.0198C480.739 63.6521 479.992 63.0847 479.41 62.3178C478.84 61.5362 478.496 60.622 478.38 59.5751C478.263 58.5283 478.397 57.5675 478.783 56.6927C479.181 55.8165 479.785 55.0984 480.595 54.5386C481.405 53.9787 482.346 53.639 483.419 53.5193C484.506 53.3981 485.506 53.5214 486.419 53.8891C487.332 54.2569 488.073 54.8249 488.641 55.5933C489.223 56.3602 489.573 57.2671 489.689 58.3139C489.806 59.3608 489.666 60.3289 489.269 61.2184C488.883 62.0932 488.286 62.8105 487.476 63.3704C486.667 63.9302 485.718 64.2707 484.632 64.3919ZM484.395 62.2651C485.309 62.1631 486.03 61.7741 486.559 61.098C487.087 60.422 487.296 59.587 487.185 58.5932C487.074 57.5994 486.687 56.8309 486.022 56.2879C485.358 55.7448 484.569 55.5242 483.654 55.6262C482.74 55.7282 482.019 56.1172 481.49 56.7932C480.975 57.4678 480.773 58.302 480.884 59.2958C480.995 60.2897 481.376 61.0589 482.027 61.6034C482.691 62.1465 483.48 62.367 484.395 62.2651Z" fill="white"/>
<path d="M504.052 62.1665C502.954 62.3005 501.94 62.1891 501.01 61.8324C500.08 61.4757 499.32 60.9169 498.73 60.156C498.138 59.3819 497.779 58.4721 497.652 57.4265C497.524 56.3809 497.655 55.418 498.045 54.5377C498.434 53.6574 499.031 52.9331 499.835 52.365C500.652 51.7952 501.616 51.4425 502.728 51.307C503.774 51.1795 504.713 51.2799 505.545 51.6082C506.391 51.9348 507.061 52.471 507.555 53.2167L505.784 54.5609C505.42 54.1083 504.992 53.7912 504.5 53.6094C504.019 53.4128 503.507 53.3476 502.965 53.4138C502.038 53.5268 501.308 53.9248 500.773 54.6079C500.237 55.2777 500.03 56.1156 500.153 57.1214C500.276 58.1273 500.672 58.8984 501.342 59.4346C502.023 59.9559 502.834 60.1593 503.773 60.0447C504.316 59.9785 504.798 59.7989 505.219 59.5057C505.651 59.1978 505.99 58.7804 506.235 58.2536L508.276 59.1329C507.963 59.977 507.436 60.6659 506.695 61.1995C505.966 61.7183 505.085 62.0406 504.052 62.1665Z" fill="white"/>
<path d="M522.443 48.8208C523.474 48.6826 524.423 48.7841 525.289 49.1253C526.169 49.4647 526.895 50.0131 527.467 50.7704C528.04 51.5277 528.398 52.4416 528.541 53.512C528.685 54.5824 528.581 55.5649 528.23 56.4595C527.877 57.3409 527.321 58.0611 526.562 58.6203C525.817 59.1777 524.928 59.5255 523.897 59.6638C522.47 59.8551 521.277 59.5309 520.316 58.6911L521.005 63.8251L518.527 64.1574L516.592 49.7265L518.951 49.4102L519.137 50.7978C519.479 50.2407 519.931 49.7967 520.492 49.4659C521.066 49.1333 521.717 48.9183 522.443 48.8208ZM523.336 57.5799C524.247 57.4577 524.953 57.0536 525.453 56.3677C525.966 55.6801 526.156 54.8407 526.024 53.8496C525.891 52.8585 525.486 52.0988 524.81 51.5707C524.147 51.0408 523.36 50.8369 522.448 50.9592C521.853 51.0389 521.336 51.2495 520.898 51.5908C520.458 51.9189 520.132 52.3526 519.922 52.892C519.712 53.4314 519.651 54.0315 519.74 54.6922C519.828 55.353 520.045 55.9158 520.39 56.3808C520.735 56.8457 521.164 57.1851 521.677 57.3988C522.188 57.5993 522.741 57.6597 523.336 57.5799Z" fill="white"/>
<path d="M541.562 57.2257C540.493 57.383 539.496 57.2939 538.571 56.9585C537.646 56.623 536.879 56.0822 536.27 55.3362C535.673 54.5751 535.298 53.6735 535.144 52.6314C534.991 51.5893 535.091 50.6244 535.446 49.7366C535.814 48.8469 536.392 48.1081 537.182 47.5202C537.971 46.9323 538.9 46.5597 539.969 46.4024C541.05 46.2431 542.054 46.3313 542.979 46.6667C543.905 47.0022 544.665 47.5439 545.26 48.2918C545.869 49.0379 546.25 49.9319 546.403 50.974C546.556 52.0161 546.45 52.9886 546.084 53.8915C545.73 54.7793 545.158 55.5171 544.369 56.105C543.579 56.6929 542.644 57.0665 541.562 57.2257ZM541.25 55.1085C542.16 54.9746 542.868 54.5605 543.372 53.8663C543.876 53.1721 544.055 52.3304 543.91 51.341C543.764 50.3517 543.35 49.5973 542.667 49.0779C541.984 48.5585 541.188 48.3658 540.277 48.4998C539.367 48.6338 538.66 49.0478 538.156 49.742C537.665 50.4342 537.492 51.275 537.637 52.2644C537.783 53.2537 538.191 54.0091 538.861 54.5304C539.543 55.0498 540.34 55.2425 541.25 55.1085Z" fill="white"/>
<path d="M562.775 43.0291L564.478 53.5724L562.01 53.9711L561.35 49.8841C560.415 50.5348 559.395 50.9495 558.29 51.128C556.934 51.347 555.844 51.2057 555.02 50.704C554.194 50.1891 553.677 49.2867 553.469 47.9967L552.923 44.6205L555.391 44.2218L555.911 47.4401C556.019 48.1114 556.298 48.5797 556.746 48.845C557.194 49.1103 557.78 49.1845 558.504 49.0675C559.425 48.9187 560.275 48.5788 561.054 48.0479L560.307 43.4277L562.775 43.0291Z" fill="white"/>
<path d="M573.013 41.3537L575.474 40.9138L576.237 45.1861L581.533 44.2396L580.77 39.9673L583.231 39.5274L585.11 50.0409L582.649 50.4807L581.906 46.3265L576.61 47.273L577.353 51.4272L574.892 51.8671L573.013 41.3537Z" fill="white"/>
<path d="M595.464 37.1183C597.008 36.8125 598.259 36.9521 599.217 37.5369C600.186 38.1061 600.818 39.1362 601.114 40.6272L602.331 46.7678L600.016 47.2265L599.763 45.9513C599.553 46.4686 599.191 46.9073 598.678 47.2672C598.175 47.6115 597.532 47.8614 596.747 48.0168C595.962 48.1723 595.25 48.1776 594.609 48.0326C593.966 47.8746 593.435 47.5925 593.014 47.1865C592.605 46.7647 592.34 46.253 592.221 45.6514C592.034 44.7097 592.232 43.889 592.814 43.1892C593.406 42.4738 594.454 41.9671 595.958 41.6691L598.665 41.1327L598.634 40.9757C598.489 40.2433 598.155 39.725 597.633 39.4207C597.124 39.1138 596.437 39.0459 595.574 39.217C594.986 39.3336 594.422 39.5404 593.883 39.8376C593.356 40.1321 592.93 40.4817 592.602 40.8865L591.287 39.2916C591.753 38.7643 592.35 38.313 593.078 37.9377C593.806 37.5625 594.601 37.2893 595.464 37.1183ZM596.903 46.1305C597.518 46.0087 598.033 45.7638 598.45 45.3959C598.877 45.0122 599.137 44.5394 599.229 43.9774L598.988 42.761L596.457 43.2625C595.045 43.5423 594.43 44.1466 594.614 45.0752C594.703 45.5199 594.949 45.838 595.354 46.0296C595.759 46.2213 596.275 46.2549 596.903 46.1305Z" fill="white"/>
<path d="M617.653 32.7136L619.755 43.1848L617.558 43.6255L616.925 40.4685L614.16 41.0234L612.656 44.6094L610.029 45.1367L611.799 41.1505C610.988 41.0412 610.326 40.7592 609.814 40.3046C609.311 39.8342 608.98 39.2003 608.82 38.4029C608.579 37.2002 608.817 36.1868 609.536 35.3626C610.254 34.5385 611.359 33.9768 612.849 33.6777L617.653 32.7136ZM613.341 35.7209C611.759 36.0384 611.087 36.7919 611.326 37.9816C611.562 39.1581 612.445 39.5929 613.974 39.2859L616.582 38.7625L615.87 35.2133L613.341 35.7209Z" fill="white"/>
<path d="M636.405 29.1991L638.264 39.7162L635.821 40.1477L634.332 31.7184L629.152 32.6338L630.642 41.0631L628.18 41.4982L626.321 30.9812L636.405 29.1991Z" fill="white"/>
<path d="M651.158 37.6871C650.091 37.8525 649.093 37.771 648.165 37.4426C647.237 37.1142 646.466 36.5793 645.852 35.8379C645.249 35.0813 644.867 34.1826 644.706 33.1417C644.544 32.1008 644.637 31.1351 644.985 30.2447C645.346 29.3522 645.919 28.609 646.704 28.0151C647.489 27.4213 648.415 27.0416 649.482 26.8762C650.563 26.7088 651.567 26.7893 652.495 27.1177C653.423 27.4461 654.187 27.982 654.788 28.7254C655.402 29.4668 655.79 30.3579 655.951 31.3988C656.113 32.4397 656.014 33.413 655.655 34.3187C655.307 35.2091 654.741 35.9512 653.956 36.5451C653.171 37.139 652.238 37.5197 651.158 37.6871ZM650.83 35.5724C651.739 35.4315 652.443 35.012 652.942 34.3141C653.441 33.6161 653.614 32.773 653.461 31.7848C653.308 30.7966 652.888 30.0454 652.201 29.5312C651.514 29.0169 650.716 28.8303 649.807 28.9712C648.898 29.1121 648.194 29.5315 647.695 30.2295C647.209 30.9255 647.043 31.7675 647.196 32.7557C647.349 33.7439 647.762 34.4962 648.436 35.0124C649.123 35.5266 649.921 35.7133 650.83 35.5724Z" fill="white"/>
<path d="M676.582 31.6988L677.185 36.1583L674.866 36.4716L674.547 34.113L666.381 35.2162L666.7 37.5748L664.401 37.8854L663.799 33.4259L664.294 33.359C664.964 33.2415 665.362 32.7505 665.488 31.8859C665.624 31.0064 665.629 29.7949 665.501 28.2514L665.15 24.6056L673.871 23.4274L675.017 31.9104L676.582 31.6988ZM667.785 28.1245C667.896 29.3473 667.931 30.3517 667.889 31.1377C667.847 31.9237 667.66 32.5276 667.326 32.9493L672.539 32.2451L671.677 25.863L667.614 26.412L667.785 28.1245Z" fill="white"/>
<path d="M696.571 29.2334L697.093 33.703L694.769 33.9745L694.492 31.6105L686.308 32.5665L686.584 34.9304L684.28 35.1996L683.758 30.73L684.254 30.672C684.927 30.5666 685.333 30.0828 685.474 29.2207C685.627 28.3437 685.653 27.1325 685.553 25.587L685.268 21.9354L694.008 20.9145L695.001 29.4167L696.571 29.2334ZM687.839 25.5012C687.928 26.7258 687.945 27.7306 687.889 28.5158C687.833 29.3009 687.635 29.9013 687.294 30.317L692.518 29.7067L691.771 23.3102L687.699 23.7859L687.839 25.5012Z" fill="white"/>
<path d="M713.208 24.2802C713.226 24.4527 713.238 24.6994 713.243 25.0205L704.906 25.8644C705.131 26.6323 705.572 27.2175 706.229 27.62C706.898 28.008 707.691 28.1556 708.606 28.063C709.773 27.9448 710.696 27.4627 711.374 26.6168L712.863 28.014C712.443 28.6328 711.883 29.125 711.183 29.4907C710.483 29.8564 709.675 30.0856 708.76 30.1782C707.592 30.2964 706.541 30.1683 705.605 29.794C704.669 29.4196 703.914 28.8461 703.34 28.0733C702.778 27.2859 702.444 26.3682 702.338 25.3202C702.233 24.2855 702.371 23.3334 702.752 22.464C703.145 21.5799 703.736 20.8634 704.525 20.3145C705.314 19.7657 706.232 19.4382 707.28 19.3321C708.315 19.2274 709.26 19.3662 710.116 19.7486C710.985 20.1164 711.686 20.6953 712.222 21.4854C712.77 22.2608 713.098 23.1925 713.208 24.2802ZM707.481 21.3219C706.686 21.4025 706.033 21.7098 705.524 22.2437C705.027 22.7631 704.759 23.4201 704.719 24.2149L710.748 23.6046C710.564 22.8459 710.176 22.2553 709.584 21.8328C708.991 21.4103 708.291 21.24 707.481 21.3219Z" fill="white"/>
<path d="M725.56 17.5637C726.597 17.474 727.539 17.6198 728.389 18.0013C729.251 18.3816 729.951 18.9634 730.487 19.7468C731.023 20.5301 731.338 21.4597 731.431 22.5357C731.525 23.6117 731.375 24.5882 730.982 25.4654C730.589 26.3292 730 27.0226 729.215 27.5456C728.444 28.0674 727.541 28.3732 726.504 28.4629C725.07 28.5872 723.893 28.2073 722.973 27.3234L723.42 32.484L720.929 32.6998L719.673 18.194L722.044 17.9887L722.165 19.3835C722.533 18.843 723.005 18.4207 723.581 18.1166C724.17 17.8113 724.83 17.627 725.56 17.5637ZM726.041 26.355C726.957 26.2757 727.681 25.9051 728.213 25.2435C728.758 24.5807 728.987 23.7511 728.901 22.7549C728.815 21.7586 728.446 20.9808 727.795 20.4215C727.158 19.8611 726.381 19.6206 725.464 19.7C724.867 19.7517 724.341 19.9378 723.887 20.2582C723.432 20.5653 723.086 20.9833 722.851 21.5122C722.616 22.0411 722.527 22.6377 722.584 23.3019C722.642 23.9661 722.832 24.5385 723.155 25.0191C723.477 25.4997 723.89 25.8588 724.392 26.0963C724.894 26.3206 725.443 26.4068 726.041 26.355Z" fill="white"/>
<path d="M751.426 22.0423L749.631 22.1687L749.931 26.4381L747.457 26.6123L747.157 22.3428L745.361 22.4692L743.068 26.9213L740.115 27.1291L743.219 21.377L739.625 16.4573L742.278 16.2704L745.175 20.3972L747.011 20.268L746.707 15.9586L749.181 15.7845L749.485 20.0938L751.3 19.966L753.61 15.4727L756.264 15.2858L753.394 20.6606L757.293 25.9198L754.32 26.1291L751.426 22.0423Z" fill="white"/>
<path d="M768.835 20.9132L766.898 21.0222L767.139 25.2955L764.643 25.436L764.042 14.7729L766.538 14.6324L766.781 18.9455L768.778 18.8331L771.69 14.3422L774.366 14.1915L770.781 19.5416L775.226 24.84L772.291 25.0053L768.835 20.9132Z" fill="white"/>
<path d="M784.55 13.5421C786.121 13.4712 787.337 13.7967 788.197 14.5187C789.07 15.2267 789.541 16.34 789.609 17.8584L789.892 24.1121L787.534 24.2185L787.475 22.9198C787.19 23.3998 786.767 23.7793 786.205 24.0582C785.657 24.3232 784.983 24.4737 784.184 24.5098C783.385 24.5458 782.679 24.4442 782.068 24.2048C781.456 23.9522 780.973 23.5936 780.618 23.1291C780.276 22.6507 780.091 22.1051 780.064 21.4924C780.02 20.5334 780.339 19.7516 781.019 19.147C781.712 18.5285 782.824 18.1846 784.356 18.1155L787.113 17.9911L787.106 17.8313C787.072 17.0854 786.82 16.5228 786.349 16.1437C785.891 15.7639 785.223 15.5939 784.344 15.6335C783.744 15.6606 783.156 15.7806 782.578 15.9935C782.014 16.2058 781.539 16.4875 781.155 16.8385L780.094 15.0645C780.634 14.6131 781.292 14.2564 782.068 13.9945C782.843 13.7326 783.671 13.5818 784.55 13.5421ZM784.621 22.6682C785.247 22.6399 785.794 22.4751 786.261 22.1738C786.74 21.8585 787.068 21.43 787.244 20.8882L787.188 19.6494L784.61 19.7657C783.172 19.8306 782.474 20.3359 782.517 21.2816C782.537 21.7345 782.733 22.086 783.105 22.3362C783.476 22.5864 783.982 22.697 784.621 22.6682Z" fill="white"/>
<path d="M801.912 23.7536C801.459 23.7696 801.067 23.6301 800.736 23.3349C800.405 23.0265 800.231 22.6324 800.214 22.1527C800.197 21.6596 800.336 21.2545 800.631 20.9371C800.94 20.6194 801.328 20.4522 801.794 20.4357C802.261 20.4192 802.653 20.5587 802.97 20.8543C803.301 21.1495 803.475 21.5436 803.492 22.0366C803.509 22.5163 803.363 22.9217 803.055 23.2528C802.746 23.5706 802.365 23.7376 801.912 23.7536Z" fill="white"/>
<path d="M815.165 18.8878L813.225 18.9402L813.341 23.2187L810.842 23.2862L810.553 12.6101L813.053 12.5426L813.169 16.861L815.169 16.807L818.211 12.4032L820.89 12.3308L817.15 17.5737L821.438 22.9999L818.499 23.0793L815.165 18.8878Z" fill="white"/>
<path d="M834.692 11.9096C835.732 11.8931 836.662 12.1051 837.482 12.5455C838.316 12.9857 838.973 13.6154 839.452 14.4346C839.932 15.2538 840.18 16.2033 840.197 17.2832C840.215 18.363 839.996 19.3266 839.543 20.1739C839.09 21.0078 838.453 21.658 837.634 22.1243C836.828 22.5905 835.905 22.8317 834.865 22.8482C833.425 22.871 832.277 22.409 831.422 21.4624L831.504 26.6418L829.005 26.6813L828.774 12.1231L831.154 12.0855L831.176 13.4853C831.582 12.9722 832.082 12.5842 832.678 12.3214C833.287 12.0584 833.959 11.9211 834.692 11.9096ZM834.551 20.7129C835.471 20.6983 836.219 20.3798 836.796 19.7573C837.386 19.1345 837.674 18.3232 837.658 17.3233C837.642 16.3235 837.329 15.5216 836.72 14.9179C836.123 14.3139 835.365 14.0192 834.445 14.0337C833.845 14.0432 833.308 14.1917 832.832 14.4793C832.356 14.7535 831.983 15.1461 831.711 15.6572C831.439 16.1682 831.308 16.757 831.319 17.4236C831.329 18.0902 831.478 18.6745 831.766 19.1767C832.054 19.6789 832.44 20.0662 832.925 20.3385C833.409 20.5976 833.951 20.7224 834.551 20.7129Z" fill="white"/>
<path d="M859.027 11.7712L854.084 23.3356C853.623 24.4979 853.06 25.314 852.396 25.7839C851.732 26.2672 850.926 26.5112 849.98 26.5158C849.446 26.5184 848.919 26.4343 848.398 26.2636C847.878 26.0928 847.45 25.8549 847.115 25.5499L848.106 23.705C848.347 23.9305 848.628 24.1091 848.948 24.2408C849.282 24.3725 849.616 24.4376 849.949 24.4359C850.389 24.4338 850.749 24.3187 851.028 24.0906C851.32 23.8625 851.585 23.4812 851.822 22.9467L852 22.5258L847.287 11.8289L849.887 11.8161L853.286 19.6995L856.627 11.7829L859.027 11.7712Z" fill="white"/>
<path d="M875.99 13.9081L872.25 13.8902L872.21 22.4501L869.71 22.4382L869.75 13.8783L865.991 13.8603L866.001 11.7403L876.001 11.7881L875.99 13.9081Z" fill="white"/>
<path d="M887.571 22.7086C886.491 22.6932 885.522 22.4459 884.662 21.9669C883.802 21.4878 883.131 20.8315 882.65 19.9978C882.182 19.151 881.955 18.201 881.97 17.1478C881.986 16.0946 882.239 15.1581 882.731 14.3384C883.236 13.5189 883.925 12.8821 884.798 12.4278C885.672 11.9736 886.648 11.7543 887.728 11.7698C888.821 11.7854 889.798 12.0328 890.658 12.5118C891.518 12.9908 892.182 13.6471 892.65 14.4805C893.131 15.3142 893.364 16.2576 893.349 17.3109C893.334 18.3641 893.074 19.3071 892.569 20.14C892.077 20.9597 891.394 21.5966 890.521 22.0508C889.648 22.505 888.665 22.7243 887.571 22.7086ZM887.602 20.5689C888.522 20.582 889.286 20.2863 889.895 19.6816C890.504 19.0769 890.815 18.2747 890.83 17.2748C890.844 16.2749 890.555 15.464 889.964 14.8421C889.373 14.2202 888.618 13.9027 887.698 13.8895C886.778 13.8764 886.013 14.1721 885.405 14.7768C884.809 15.3816 884.505 16.184 884.49 17.1839C884.476 18.1838 884.758 18.9946 885.335 19.6163C885.927 20.2381 886.682 20.5557 887.602 20.5689Z" fill="white"/>
<path d="M900.571 12.0693L903.07 12.1311L902.896 19.1689L908.968 12.2769L911.247 12.3332L910.983 23.01L908.484 22.9482L908.658 15.9103L902.606 22.8029L900.307 22.746L900.571 12.0693ZM905.78 10.9377C904.701 10.911 903.88 10.644 903.319 10.1366C902.772 9.61629 902.503 8.8761 902.514 7.91606L904.173 7.95708C904.175 8.43727 904.312 8.82078 904.585 9.10761C904.871 9.39477 905.274 9.54478 905.794 9.55763C906.301 9.57015 906.704 9.44008 907.004 9.16742C907.318 8.89508 907.487 8.51915 907.512 8.03963L909.212 8.08164C909.175 9.04102 908.863 9.76688 908.278 10.2592C907.692 10.7382 906.86 10.9644 905.78 10.9377Z" fill="white"/>
<path d="M921.183 12.586L923.681 12.676L923.428 19.7114L929.577 12.8882L931.856 12.9703L931.472 23.6433L928.973 23.5534L929.227 16.518L923.097 23.3418L920.799 23.2591L921.183 12.586Z" fill="white"/>
<path d="M953.331 13.8859L947.791 25.1768C947.27 26.3134 946.665 27.099 945.977 27.5337C945.289 27.9816 944.472 28.1833 943.526 28.1385C942.993 28.1133 942.471 28.0019 941.96 27.8041C941.449 27.6064 941.034 27.3465 940.716 27.0245L941.801 25.2338C942.03 25.4715 942.302 25.6646 942.615 25.8129C942.942 25.9618 943.271 26.0441 943.604 26.0599C944.044 26.0807 944.409 25.9845 944.699 25.7713C945.003 25.5588 945.287 25.1918 945.552 24.6704L945.752 24.2594L941.604 13.3311L944.201 13.454L947.184 21.504L950.933 13.7725L953.331 13.8859Z" fill="white"/>
<path d="M971.336 23.4322L971.076 27.9247L968.74 27.7897L968.878 25.4137L960.651 24.9383L960.514 27.3144L958.198 27.1805L958.457 22.688L958.957 22.7169C959.637 22.7295 960.121 22.3234 960.409 21.4986C960.711 20.6613 960.947 19.473 961.116 17.9335L961.467 14.2877L970.252 14.7953L969.759 23.3411L971.336 23.4322ZM963.382 18.2447C963.258 19.4663 963.1 20.4588 962.909 21.2224C962.718 21.986 962.419 22.543 962.011 22.8934L967.263 23.1968L967.634 16.7676L963.541 16.531L963.382 18.2447Z" fill="white"/>
<path d="M984.217 26.5137C983.139 26.4389 982.184 26.1387 981.352 25.6131C980.52 25.0876 979.886 24.3954 979.451 23.5365C979.031 22.6653 978.857 21.7043 978.93 20.6535C979.003 19.6027 979.307 18.6815 979.843 17.8901C980.393 17.0996 981.116 16.5016 982.013 16.096C982.91 15.6905 983.897 15.5252 984.974 15.6C986.065 15.6757 987.026 15.9763 987.859 16.5019C988.691 17.0275 989.318 17.7192 989.74 18.5771C990.174 19.436 990.355 20.3908 990.282 21.4416C990.21 22.4924 989.898 23.4197 989.348 24.2235C988.811 25.015 988.095 25.6135 987.198 26.019C986.301 26.4245 985.307 26.5894 984.217 26.5137ZM984.365 24.3788C985.283 24.4425 986.062 24.1893 986.703 23.6189C987.344 23.0486 987.699 22.2647 987.769 21.2671C987.838 20.2695 987.594 19.444 987.038 18.7906C986.482 18.1372 985.745 17.7786 984.827 17.7149C983.91 17.6512 983.13 17.9044 982.489 18.4748C981.861 19.046 981.513 19.8304 981.444 20.828C981.374 21.8256 981.611 22.6506 982.154 23.3031C982.71 23.9565 983.447 24.3151 984.365 24.3788Z" fill="white"/>
<path d="M1004.87 17.7077C1005.88 17.7899 1006.75 18.0817 1007.49 18.583C1008.22 19.071 1008.77 19.7177 1009.13 20.5231C1009.51 21.3295 1009.66 22.2311 1009.58 23.2278C1009.49 24.2511 1009.18 25.142 1008.64 25.9004C1008.09 26.6455 1007.37 27.2022 1006.47 27.5704C1005.57 27.9387 1004.57 28.0779 1003.47 27.9881C1001.62 27.8378 1000.24 27.1102 999.333 25.8053C998.423 24.5005 998.061 22.6986 998.248 20.3995C998.423 18.2599 999.019 16.6028 1000.04 15.4283C1001.06 14.2537 1002.53 13.5439 1004.44 13.2988L1009.47 12.6447L1009.65 14.9065L1005.09 15.4584C1003.78 15.6193 1002.78 15.9927 1002.09 16.5786C1001.4 17.1646 1000.96 18.0314 1000.76 19.1789C1001.28 18.6464 1001.89 18.2549 1002.6 18.0044C1003.3 17.7406 1004.06 17.6417 1004.87 17.7077ZM1003.69 25.9797C1004.61 26.0543 1005.37 25.822 1005.98 25.2827C1006.6 24.7312 1006.95 23.9969 1007.02 23.0799C1007.09 22.163 1006.87 21.4022 1006.34 20.7975C1005.83 20.1939 1005.12 19.8548 1004.2 19.7802C1003.27 19.7044 1002.49 19.9224 1001.88 20.434C1001.26 20.9457 1000.91 21.66 1000.84 22.5769C1000.76 23.5072 1000.99 24.288 1001.51 24.9192C1002.05 25.5515 1002.78 25.905 1003.69 25.9797Z" fill="white"/>
<path d="M1017.14 18.1924L1019.63 18.426L1019.23 22.747L1024.58 23.2496L1024.99 18.9286L1027.48 19.1622L1026.48 29.7955L1023.99 29.5619L1024.39 25.3603L1019.03 24.8577L1018.63 29.0593L1016.15 28.8257L1017.14 18.1924Z" fill="white"/>
<path d="M1041.76 24.1271C1043.11 24.2747 1044.11 24.6924 1044.76 25.3802C1045.41 26.0681 1045.67 26.9687 1045.55 28.0821C1045.42 29.2485 1044.93 30.1064 1044.06 30.6558C1043.21 31.2067 1042.07 31.3966 1040.62 31.2257L1035.81 30.6806L1036.97 20.0637L1039.46 20.3349L1039.08 23.8143L1041.76 24.1271ZM1047.69 21.2333L1050.17 21.5046L1049.01 32.1216L1046.53 31.8503L1047.69 21.2333ZM1040.6 29.3727C1041.33 29.4655 1041.9 29.3738 1042.32 29.0977C1042.74 28.8215 1042.98 28.3786 1043.05 27.7689C1043.12 27.1724 1042.98 26.7147 1042.64 26.3959C1042.3 26.077 1041.75 25.8698 1041 25.774L1038.89 25.5241L1038.5 29.1228L1040.6 29.3727Z" fill="white"/>
<path d="M1057.21 22.2791L1059.69 22.5907L1058.81 29.5758L1065.54 23.326L1067.81 23.6101L1066.48 34.2069L1064 33.8953L1064.87 26.9102L1058.16 33.1625L1055.88 32.8759L1057.21 22.2791ZM1062.51 21.6745C1061.44 21.5399 1060.65 21.1922 1060.14 20.6312C1059.65 20.0587 1059.45 19.2954 1059.56 18.3412L1061.21 18.5481C1061.16 19.026 1061.26 19.4213 1061.5 19.734C1061.76 20.0484 1062.14 20.238 1062.66 20.3028C1063.16 20.3659 1063.58 20.2769 1063.9 20.0356C1064.24 19.796 1064.45 19.4389 1064.52 18.9643L1066.21 19.1762C1066.07 20.127 1065.69 20.8181 1065.06 21.2494C1064.43 21.6674 1063.58 21.8091 1062.51 21.6745Z" fill="white"/>
<path d="M1089.39 35.2084L1088.75 39.6619L1086.43 39.3262L1086.77 36.9708L1078.62 35.7887L1078.28 38.1441L1075.98 37.8113L1076.63 33.3579L1077.12 33.4296C1077.8 33.5007 1078.31 33.1379 1078.67 32.341C1079.05 31.5328 1079.38 30.3692 1079.68 28.85L1080.35 25.2479L1089.06 26.5103L1087.83 34.9818L1089.39 35.2084ZM1081.91 29.3552C1081.69 30.5615 1081.44 31.5368 1081.19 32.2811C1080.93 33.0254 1080.58 33.5546 1080.15 33.8686L1085.35 34.6231L1086.28 28.2497L1082.22 27.6616L1081.91 29.3552Z" fill="white"/>
<path d="M1098.27 27.8716L1100.74 28.2827L1099.58 35.2269L1106.56 29.2528L1108.81 29.6278L1107.05 40.1624L1104.59 39.7513L1105.74 32.8071L1098.79 38.7844L1096.52 38.4062L1098.27 27.8716Z" fill="white"/>
<path d="M1123.07 37.3975C1123.69 37.7063 1124.13 38.1042 1124.41 38.591C1124.7 39.0672 1124.79 39.5935 1124.68 40.1696C1124.55 40.8113 1124.23 41.3395 1123.7 41.7542C1123.17 42.1559 1122.51 42.4214 1121.69 42.5507C1120.88 42.6801 1119.99 42.6519 1119.02 42.4661C1118.21 42.3104 1117.44 42.0669 1116.7 41.7354C1115.96 41.3908 1115.32 40.9815 1114.75 40.5075L1115.81 38.8163C1116.27 39.2023 1116.8 39.5354 1117.41 39.8156C1118.02 40.0957 1118.65 40.2973 1119.29 40.4204C1120.12 40.5785 1120.78 40.5772 1121.29 40.4162C1121.81 40.2447 1122.11 39.9364 1122.2 39.4911C1122.28 39.0852 1122.15 38.7358 1121.83 38.4429C1121.52 38.1525 1121.04 37.9445 1120.38 37.8189L1118.34 37.4273L1118.65 35.7773L1120.5 36.1313C1121.12 36.2493 1121.61 36.2362 1122 36.092C1122.39 35.9503 1122.62 35.6895 1122.7 35.3098C1122.77 34.93 1122.62 34.5887 1122.24 34.2857C1121.86 33.9828 1121.31 33.761 1120.58 33.6204C1119.53 33.4195 1118.37 33.4627 1117.11 33.75L1116.83 31.8224C1118.32 31.4443 1119.77 31.3897 1121.18 31.6583C1122.07 31.829 1122.84 32.1066 1123.5 32.491C1124.16 32.8623 1124.65 33.3082 1124.95 33.8287C1125.28 34.3387 1125.39 34.8752 1125.28 35.4383C1125.18 35.949 1124.93 36.3772 1124.54 36.7229C1124.15 37.0554 1123.66 37.2803 1123.07 37.3975Z" fill="white"/>
<path d="M1137.61 34.9733C1139.15 35.3133 1140.24 35.9437 1140.88 36.8644C1141.54 37.7749 1141.7 38.9722 1141.37 40.4563L1140.02 46.5684L1137.72 46.0583L1138 44.789C1137.6 45.1784 1137.09 45.4348 1136.48 45.5582C1135.88 45.6715 1135.19 45.6417 1134.41 45.4688C1133.62 45.2959 1132.97 45.0145 1132.44 44.6244C1131.92 44.2214 1131.54 43.7495 1131.32 43.2088C1131.12 42.658 1131.08 42.0831 1131.21 41.4843C1131.42 40.547 1131.93 39.8748 1132.74 39.4677C1133.57 39.0505 1134.74 39.0076 1136.23 39.339L1138.93 39.9355L1138.96 39.7793C1139.12 39.0503 1139.03 38.4415 1138.67 37.953C1138.33 37.4674 1137.73 37.1295 1136.87 36.9393C1136.28 36.8096 1135.68 36.7725 1135.07 36.8279C1134.47 36.8863 1133.94 37.035 1133.48 37.274L1132.91 35.2852C1133.55 34.9896 1134.28 34.8162 1135.1 34.7649C1135.91 34.7136 1136.75 34.7831 1137.61 34.9733ZM1135.31 43.8042C1135.92 43.9397 1136.49 43.9226 1137.02 43.7529C1137.56 43.5731 1137.99 43.2445 1138.3 42.767L1138.57 41.5563L1136.05 40.9987C1134.64 40.6875 1133.84 40.994 1133.64 41.9183C1133.54 42.3609 1133.64 42.7513 1133.93 43.0895C1134.22 43.4277 1134.68 43.6659 1135.31 43.8042Z" fill="white"/>
<path d="M1152.6 38.4583L1155.02 39.107L1153.19 45.9059L1160.72 40.6378L1162.92 41.2294L1160.15 51.5436L1157.73 50.895L1159.56 44.096L1152.05 49.3693L1149.83 48.7726L1152.6 38.4583ZM1157.93 38.5855C1156.89 38.3053 1156.15 37.8525 1155.73 37.2274C1155.32 36.5927 1155.23 35.8101 1155.47 34.8796L1157.07 35.3103C1156.96 35.7773 1157 36.1823 1157.2 36.5254C1157.41 36.8719 1157.77 37.1126 1158.27 37.2475C1158.76 37.379 1159.18 37.3476 1159.54 37.1533C1159.91 36.9624 1160.16 36.637 1160.3 36.1769L1161.94 36.6179C1161.68 37.5416 1161.2 38.1737 1160.52 38.5143C1159.84 38.842 1158.98 38.8657 1157.93 38.5855Z" fill="white"/>
<path d="M1171.01 43.427L1173.38 44.2362L1171.97 48.3425L1177.06 50.084L1178.47 45.9777L1180.83 46.787L1177.38 56.8919L1175.01 56.0827L1176.38 52.0899L1171.29 50.3484L1169.92 54.3412L1167.55 53.5319L1171.01 43.427Z" fill="white"/>
<path d="M1185.67 60.1667C1185.26 59.9801 1184.97 59.6811 1184.8 59.2699C1184.64 58.8465 1184.66 58.4161 1184.86 57.9787C1185.06 57.5291 1185.37 57.2277 1185.77 57.0746C1186.19 56.9269 1186.61 56.9491 1187.04 57.1413C1187.46 57.3334 1187.75 57.6324 1187.9 58.0381C1188.07 58.4493 1188.05 58.8797 1187.85 59.3293C1187.65 59.7667 1187.34 60.0654 1186.92 60.2252C1186.5 60.3729 1186.08 60.3534 1185.67 60.1667Z" fill="white"/>
</svg>
