<svg width="236" height="76" viewBox="0 0 236 76" fill="none" xmlns="http://www.w3.org/2000/svg">
<path d="M10.9312 59.9274C10.1729 59.5899 9.56351 59.127 9.10291 58.5388C8.6423 57.9507 8.36906 57.2982 8.2832 56.5813C8.2014 55.8552 8.32114 55.1314 8.64244 54.4097C8.96373 53.6879 9.41946 53.1191 10.0096 52.7032C10.5998 52.2873 11.263 52.0516 11.9991 51.9962C12.7444 51.9449 13.5008 52.09 14.2682 52.4317C14.9899 52.7529 15.5552 53.1797 15.964 53.712C16.382 54.2484 16.606 54.8516 16.6361 55.5218L14.9789 55.7035C14.9193 55.272 14.7662 54.9028 14.5197 54.596C14.2863 54.2842 13.9824 54.0449 13.6078 53.8781C12.9683 53.5934 12.3449 53.5677 11.7376 53.8008C11.1343 54.0248 10.6782 54.484 10.3691 55.1783C10.06 55.8726 10.0174 56.5214 10.2415 57.1247C10.4787 57.7228 10.9216 58.1663 11.5702 58.4551C11.9448 58.6218 12.324 58.6921 12.7078 58.6659C13.1048 58.6347 13.4836 58.4969 13.8442 58.2524L14.8181 59.6054C14.2909 60.0275 13.6861 60.2672 13.0038 60.3247C12.3346 60.3771 11.6438 60.2447 10.9312 59.9274Z" fill="white"/>
<path d="M21.2652 63.4769C20.4771 63.2896 19.8074 62.9505 19.256 62.4596C18.7046 61.9688 18.3206 61.379 18.104 60.6902C17.8995 59.994 17.8886 59.2616 18.0713 58.4931C18.254 57.7245 18.5922 57.0802 19.0859 56.5603C19.5892 56.0427 20.1976 55.6888 20.9109 55.4986C21.6242 55.3085 22.3749 55.3071 23.163 55.4944C23.9607 55.6841 24.6353 56.0243 25.1867 56.5152C25.7382 57.006 26.1173 57.5947 26.3241 58.2811C26.5407 58.9699 26.5576 59.6986 26.3749 60.4672C26.1922 61.2357 25.8479 61.8837 25.3423 62.411C24.8486 62.931 24.2451 63.286 23.5318 63.4762C22.8185 63.6663 22.0629 63.6666 21.2652 63.4769ZM21.6364 61.9155C22.3077 62.075 22.9154 61.9831 23.4596 61.6397C24.0038 61.2962 24.3627 60.7597 24.5361 60.03C24.7096 59.3004 24.6306 58.6597 24.2992 58.1081C23.9678 57.5565 23.4665 57.2009 22.7952 57.0413C22.1239 56.8817 21.5162 56.9736 20.972 57.3171C20.4375 57.6628 20.0835 58.2005 19.9101 58.9302C19.7366 59.6599 19.8107 60.2993 20.1324 60.8486C20.4638 61.4003 20.9651 61.7559 21.6364 61.9155Z" fill="white"/>
<path d="M35.5509 61.3423C36.5111 61.727 36.9488 62.4075 36.8638 63.3838C36.8014 64.1011 36.4843 64.6306 35.9125 64.9723C35.3407 65.314 34.5268 65.4389 33.4708 65.347L29.4062 64.9932L30.1007 57.0134L34.001 57.3529C34.9773 57.4378 35.7238 57.6835 36.2405 58.0898C36.7572 58.4962 36.987 59.0281 36.9297 59.6856C36.8942 60.0941 36.7538 60.4382 36.5086 60.718C36.2734 60.9986 35.9542 61.2067 35.5509 61.3423ZM31.5889 60.5006L33.5465 60.671C34.5129 60.7551 35.0251 60.4634 35.0832 59.7959C35.1396 59.1484 34.6846 58.7825 33.7182 58.6984L31.7606 58.528L31.5889 60.5006ZM33.4397 63.9741C34.4658 64.0635 35.008 63.7744 35.066 63.1069C35.0964 62.7582 34.9994 62.4888 34.775 62.2986C34.5516 62.0985 34.1858 61.9763 33.6777 61.9321L31.481 61.7409L31.3028 63.7881L33.4397 63.9741Z" fill="white"/>
<path d="M44.3388 57.5271C45.1185 57.5053 45.818 57.6558 46.4372 57.9786C47.0665 58.3011 47.5647 58.7674 47.9319 59.3773C48.2991 59.9873 48.4941 60.6971 48.5167 61.5068C48.5394 62.3165 48.3846 63.0411 48.0523 63.6806C47.7198 64.3102 47.2484 64.8036 46.6382 65.1608C46.0379 65.5177 45.348 65.7071 44.5683 65.7289C43.4887 65.7591 42.624 65.4232 41.9741 64.7211L42.0827 68.6045L40.2085 68.657L39.903 57.7413L41.6873 57.6913L41.7167 58.7409C42.016 58.3524 42.3878 58.0569 42.8323 57.8544C43.2869 57.6516 43.789 57.5425 44.3388 57.5271ZM44.3135 64.1304C45.0032 64.1111 45.5615 63.8654 45.9885 63.3933C46.4255 62.9209 46.6334 62.3098 46.6125 61.5601C46.5915 60.8104 46.3497 60.2119 45.887 59.7647C45.4343 59.3172 44.8631 59.1031 44.1733 59.1224C43.7235 59.1349 43.3216 59.2512 42.9676 59.4712C42.6134 59.6812 42.3366 59.9791 42.1373 60.3648C41.938 60.7505 41.8453 61.1933 41.8593 61.6931C41.8733 62.1929 41.9906 62.6298 42.2111 63.0038C42.4317 63.3777 42.7248 63.6646 43.0905 63.8645C43.456 64.0543 43.8636 64.143 44.3135 64.1304Z" fill="white"/>
<path d="M58.2138 60.4699C58.2295 60.5989 58.2419 60.7838 58.2511 61.0244L52.012 61.7833C52.1925 62.3557 52.5321 62.7879 53.031 63.0798C53.5387 63.3605 54.1349 63.4593 54.8199 63.3759C55.6935 63.2697 56.3781 62.8943 56.8739 62.2497L58.011 63.2749C57.7056 63.7452 57.2932 64.1228 56.7738 64.4076C56.2543 64.6924 55.6522 64.8764 54.9672 64.9597C54.0936 65.066 53.3032 64.9859 52.5958 64.7193C51.8885 64.4528 51.3137 64.0341 50.8716 63.4633C50.4381 62.8814 50.1737 62.1983 50.0783 61.4141C49.9841 60.6398 50.0733 59.9238 50.3459 59.2661C50.6272 58.5972 51.0594 58.0511 51.6425 57.6275C52.2257 57.204 52.9093 56.9446 53.6936 56.8492C54.4678 56.755 55.1789 56.8448 55.8267 57.1186C56.4832 57.3812 57.0183 57.8047 57.4318 58.3891C57.8541 58.9623 58.1148 59.6559 58.2138 60.4699ZM53.8747 58.3382C53.2791 58.4107 52.7945 58.6509 52.4211 59.059C52.0563 59.456 51.8649 59.9527 51.8468 60.5493L56.3586 60.0005C56.2091 59.4344 55.9092 58.9974 55.4587 58.6895C55.0082 58.3817 54.4802 58.2646 53.8747 58.3382Z" fill="white"/>
<path d="M70.6031 62.1826L69.5204 56.9842L67.7886 61.9108L66.9956 62.0759L63.4819 58.2265L64.5676 63.4396L62.8935 63.7883L61.2604 55.9465L63.1841 55.5459L66.9957 59.8695L68.8965 54.3562L70.6146 53.9983L72.2625 61.837L70.6031 62.1826Z" fill="white"/>
<path d="M82.1871 55.0517C82.2224 55.1768 82.263 55.3576 82.309 55.594L76.2603 57.3014C76.5265 57.8394 76.9285 58.2143 77.4663 58.4261C78.0109 58.6257 78.6153 58.6317 79.2794 58.4442C80.1263 58.2052 80.7452 57.7291 81.1362 57.0161L82.4172 57.8546C82.1875 58.3662 81.838 58.8026 81.3684 59.1638C80.8989 59.5249 80.3321 59.7992 79.668 59.9867C78.8211 60.2257 78.0277 60.2679 77.2878 60.1131C76.5479 59.9582 75.9157 59.6328 75.3912 59.1366C74.8736 58.6281 74.5075 57.9937 74.2929 57.2334C74.081 56.4827 74.0592 55.7615 74.2276 55.0698C74.4029 54.3657 74.7462 53.7596 75.2574 53.2516C75.7686 52.7436 76.4043 52.3823 77.1646 52.1677C77.9153 51.9558 78.6317 51.9354 79.3138 52.1065C80.0029 52.2653 80.5966 52.6016 81.095 53.1156C81.6003 53.6172 81.9643 54.2625 82.1871 55.0517ZM77.5722 53.6113C76.9947 53.7743 76.5528 54.0861 76.2464 54.5466C75.9469 54.9948 75.834 55.5151 75.9077 56.1073L80.2817 54.8726C80.0472 54.3361 79.6837 53.9504 79.1913 53.7153C78.6989 53.4802 78.1592 53.4455 77.5722 53.6113Z" fill="white"/>
<path d="M83.9327 50.2966L85.706 49.6875L86.7636 52.7659L90.5797 51.4549L89.5221 48.3765L91.2954 47.7673L93.8978 55.3428L92.1245 55.952L91.0962 52.9587L87.2801 54.2696L88.3084 57.2629L86.5351 57.8721L83.9327 50.2966Z" fill="white"/>
<path d="M94.2327 46.7008L95.9701 45.9958L97.1941 49.0119L100.933 47.4945L99.7089 44.4784L101.446 43.7733L104.458 51.1954L102.721 51.9005L101.531 48.9678L97.792 50.4852L98.9822 53.4178L97.2448 54.1229L94.2327 46.7008Z" fill="white"/>
<path d="M109.025 43.2476C109.942 42.8007 110.744 42.6656 111.431 42.8425C112.118 43.0194 112.645 43.4854 113.013 44.2405C113.399 45.0315 113.427 45.7742 113.098 46.4685C112.778 47.1585 112.126 47.7378 111.142 48.2064L107.872 49.7835L104.363 42.5834L106.048 41.7618L107.198 44.1214L109.025 43.2476ZM111.63 39.0408L113.316 38.2192L116.825 45.4194L115.14 46.2409L111.63 39.0408ZM110.389 47.0383C110.888 46.8063 111.215 46.5189 111.37 46.1761C111.526 45.8333 111.503 45.4551 111.301 45.0416C111.104 44.6371 110.834 44.4018 110.49 44.3357C110.146 44.2697 109.716 44.357 109.199 44.5978L107.764 45.281L108.953 47.7215L110.389 47.0383Z" fill="white"/>
<path d="M125.554 36.1309C125.614 36.2462 125.69 36.4148 125.784 36.6369L120.211 39.5437C120.582 40.0159 121.052 40.3008 121.622 40.3984C122.195 40.4825 122.788 40.3649 123.4 40.0458C124.18 39.6388 124.689 39.0464 124.926 38.2685L126.351 38.8278C126.231 39.3755 125.978 39.8741 125.592 40.3235C125.206 40.773 124.707 41.1572 124.096 41.4764C123.315 41.8834 122.547 42.0866 121.791 42.0862C121.035 42.0858 120.35 41.8962 119.735 41.5177C119.125 41.1256 118.637 40.5794 118.271 39.8789C117.911 39.1874 117.742 38.4858 117.766 37.7742C117.793 37.0491 118.006 36.3858 118.402 35.7841C118.799 35.1824 119.348 34.6988 120.048 34.3335C120.74 33.9727 121.437 33.8064 122.14 33.8346C122.846 33.8493 123.496 34.0573 124.089 34.4587C124.686 34.8465 125.174 35.4039 125.554 36.1309ZM120.742 35.6634C120.21 35.9409 119.841 36.3364 119.635 36.8498C119.433 37.3497 119.429 37.8821 119.622 38.4468L123.652 36.3447C123.313 35.8675 122.878 35.5641 122.348 35.4345C121.818 35.305 121.283 35.3813 120.742 35.6634Z" fill="white"/>
<path d="M138.285 28.1571L135.671 29.1747L138 35.1573L136.252 35.8375L133.923 29.8549L131.295 30.878L130.719 29.3963L137.708 26.6754L138.285 28.1571Z" fill="white"/>
<path d="M148.19 27.3177C148.232 27.4408 148.282 27.6192 148.34 27.8529L142.388 29.8716C142.682 30.395 143.103 30.7486 143.651 30.9323C144.205 31.1033 144.809 31.078 145.462 30.8564C146.296 30.5737 146.889 30.0662 147.243 29.3339L148.565 30.1049C148.363 30.6277 148.036 31.0816 147.586 31.4666C147.136 31.8516 146.584 32.1549 145.93 32.3766C145.097 32.6592 144.307 32.7424 143.56 32.6262C142.813 32.5099 142.165 32.2176 141.615 31.7493C141.072 31.2684 140.674 30.6538 140.42 29.9057C140.169 29.167 140.11 28.4479 140.242 27.7483C140.381 27.0361 140.692 26.413 141.177 25.8792C141.661 25.3454 142.277 24.9516 143.025 24.6979C143.764 24.4473 144.478 24.3898 145.168 24.5254C145.865 24.6482 146.475 24.9533 146.999 25.4407C147.53 25.9155 147.927 26.5411 148.19 27.3177ZM143.507 26.1184C142.939 26.3111 142.514 26.6454 142.231 27.1212C141.956 27.5844 141.87 28.1098 141.974 28.6974L146.278 27.2376C146.016 26.714 145.633 26.3476 145.129 26.1384C144.625 25.9291 144.085 25.9225 143.507 26.1184Z" fill="white"/>
<path d="M157.808 28.5277L155.053 26.4458L153.851 29.6923L151.865 30.2767L153.711 25.4962L149.733 22.5545L151.733 21.9658L154.36 23.9292L155.504 20.8562L157.446 20.2845L155.674 24.8872L159.837 27.9305L157.808 28.5277Z" fill="white"/>
<path d="M159.598 19.6842L161.416 19.225L162.213 22.381L166.125 21.3929L165.328 18.237L167.146 17.7779L169.107 25.544L167.289 26.0031L166.514 22.9345L162.602 23.9225L163.377 26.9912L161.559 27.4503L159.598 19.6842Z" fill="white"/>
<path d="M175.054 24.3399C174.261 24.5042 173.511 24.4809 172.804 24.27C172.096 24.0591 171.498 23.6876 171.01 23.1555C170.53 22.6116 170.21 21.9528 170.049 21.1793C169.889 20.4057 169.923 19.6788 170.149 18.9987C170.386 18.3165 170.787 17.7382 171.352 17.2636C171.918 16.7891 172.597 16.4697 173.391 16.3054C174.193 16.1391 174.949 16.1614 175.656 16.3723C176.364 16.5833 176.956 16.9558 177.435 17.4899C177.923 18.022 178.247 18.6748 178.407 19.4484C178.567 20.222 178.53 20.9547 178.296 21.6467C178.069 22.3268 177.673 22.9041 177.107 23.3787C176.542 23.8532 175.857 24.1736 175.054 24.3399ZM174.729 22.7683C175.405 22.6284 175.916 22.2875 176.264 21.7458C176.611 21.2041 176.709 20.5661 176.556 19.8317C176.404 19.0972 176.061 18.5504 175.527 18.1913C174.993 17.8321 174.389 17.7225 173.713 17.8624C173.037 18.0023 172.526 18.3431 172.178 18.8848C171.841 19.4245 171.748 20.0616 171.9 20.796C172.052 21.5304 172.39 22.0782 172.915 22.4394C173.449 22.7986 174.053 22.9082 174.729 22.7683Z" fill="white"/>
<path d="M187.809 13.8091L189.053 21.7219L187.2 22.0131L186.203 15.671L183.24 16.1368L183.413 17.7192C183.528 18.7741 183.567 19.6688 183.531 20.4034C183.503 21.1265 183.349 21.7227 183.068 22.192C182.796 22.6498 182.363 22.9253 181.771 23.0185C181.494 23.0619 181.145 23.0612 180.723 23.0162L180.567 21.4463C180.71 21.4542 180.831 21.4504 180.93 21.4349C181.305 21.3758 181.563 21.1834 181.704 20.8575C181.844 20.5218 181.906 20.1426 181.89 19.7199C181.882 19.2858 181.837 18.6755 181.754 17.8888L181.407 14.8153L187.809 13.8091Z" fill="white"/>
<path d="M196.5 20.9232C195.694 21.0024 194.95 20.8996 194.269 20.6148C193.588 20.33 193.033 19.8972 192.604 19.3163C192.184 18.7245 191.936 18.0355 191.858 17.2493C191.781 16.463 191.891 15.7438 192.189 15.0916C192.497 14.4384 192.957 13.9059 193.57 13.494C194.182 13.0822 194.892 12.8367 195.698 12.7575C196.514 12.6774 197.262 12.7797 197.943 13.0645C198.625 13.3493 199.175 13.7826 199.593 14.3644C200.022 14.9453 200.275 15.6289 200.353 16.4151C200.43 17.2013 200.315 17.926 200.008 18.5891C199.711 19.2413 199.255 19.7734 198.643 20.1852C198.03 20.5971 197.316 20.8431 196.5 20.9232ZM196.343 19.3259C197.03 19.2585 197.574 18.9739 197.977 18.4721C198.38 17.9703 198.545 17.3462 198.472 16.5998C198.398 15.8534 198.115 15.2733 197.622 14.8595C197.13 14.4456 196.54 14.2725 195.853 14.3399C195.166 14.4073 194.622 14.6919 194.219 15.1937C193.826 15.6945 193.666 16.3181 193.739 17.0645C193.813 17.8109 194.091 18.3916 194.574 18.8063C195.066 19.2202 195.656 19.3933 196.343 19.3259Z" fill="white"/>
<path d="M203.068 12.1683L204.943 12.1203L205.078 17.3986L209.366 12.007L211.076 11.9633L211.281 19.9706L209.406 20.0186L209.271 14.7404L204.998 20.1315L203.273 20.1757L203.068 12.1683Z" fill="white"/>
<path d="M215.326 11.9414L217.196 12.0807L216.803 17.3461L221.609 12.4094L223.314 12.5365L222.719 20.5243L220.849 20.385L221.241 15.1196L216.451 20.0574L214.731 19.9292L215.326 11.9414Z" fill="white"/>
<path d="M226.503 21.1689C226.168 21.1124 225.901 20.9508 225.703 20.6841C225.506 20.4075 225.438 20.0917 225.498 19.7367C225.559 19.3719 225.722 19.0952 225.987 18.9066C226.262 18.7197 226.572 18.6554 226.917 18.7135C227.263 18.7717 227.529 18.9333 227.718 19.1984C227.916 19.4651 227.985 19.7808 227.923 20.1457C227.863 20.5007 227.695 20.7766 227.419 20.9733C227.144 21.1602 226.839 21.2254 226.503 21.1689Z" fill="white"/>
</svg>
