<svg width="237" height="56" viewBox="0 0 237 56" fill="none" xmlns="http://www.w3.org/2000/svg">
<path d="M16.103 21.7778L17.7569 24.7198L16.2271 25.5798L15.3523 24.0238L9.96524 27.0523L10.84 28.6083L9.32322 29.461L7.66931 26.519L7.9962 26.3353C8.43096 26.0679 8.57243 25.6155 8.42061 24.9781C8.2726 24.3272 7.94052 23.4814 7.42436 22.4408L6.17071 19.9965L11.9239 16.7622L15.07 22.3585L16.103 21.7778ZM8.98112 21.7205C9.3971 22.5421 9.69925 23.2326 9.8876 23.7921C10.0759 24.3516 10.1123 24.8244 9.99674 25.2106L13.4356 23.2774L11.0686 19.0671L8.38819 20.574L8.98112 21.7205Z" fill="white"/>
<path d="M21.4146 21.7263C20.6449 21.9786 19.8968 22.0397 19.1701 21.9096C18.4434 21.7795 17.8077 21.4775 17.2629 21.0036C16.7246 20.5171 16.3324 19.8985 16.0863 19.1478C15.8402 18.3971 15.7916 17.6711 15.9406 16.9699C16.099 16.2654 16.4326 15.6457 16.9412 15.1106C17.4498 14.5756 18.089 14.1819 18.8587 13.9296C19.6379 13.6741 20.3908 13.6114 21.1175 13.7415C21.8442 13.8717 22.4752 14.1752 23.0104 14.6522C23.5551 15.1261 23.9505 15.7384 24.1966 16.4891C24.4427 17.2398 24.4881 17.9721 24.3328 18.686C24.1838 19.3873 23.855 20.0055 23.3464 20.5405C22.8378 21.0756 22.1938 21.4709 21.4146 21.7263ZM20.9147 20.2012C21.5703 19.9862 22.0403 19.5901 22.3246 19.0128C22.609 18.4355 22.6343 17.7905 22.4007 17.0778C22.167 16.3652 21.7648 15.8604 21.1939 15.5634C20.623 15.2665 20.0097 15.2255 19.354 15.4404C18.6983 15.6554 18.2283 16.0515 17.944 16.6288C17.6692 17.203 17.6486 17.8464 17.8823 18.5591C18.1159 19.2718 18.5134 19.7781 19.0748 20.0782C19.6457 20.3751 20.259 20.4161 20.9147 20.2012Z" fill="white"/>
<path d="M33.538 10.4869L34.9771 18.3666L33.1326 18.7034L31.9792 12.3879L29.028 12.9269L29.2399 14.5045C29.3812 15.5562 29.4427 16.4497 29.4245 17.1849C29.4143 17.9085 29.2748 18.5083 29.006 18.9844C28.7452 19.4488 28.3196 19.7349 27.7294 19.8427C27.454 19.893 27.1047 19.9009 26.6816 19.8663L26.4872 18.3008C26.6303 18.3052 26.751 18.2984 26.8494 18.2804C27.2232 18.2121 27.4766 18.0134 27.6096 17.6841C27.7408 17.345 27.7933 16.9644 27.767 16.5422C27.7488 16.1085 27.6884 15.4994 27.5858 14.7151L27.1635 11.6511L33.538 10.4869Z" fill="white"/>
<path d="M43.445 10.998L39.1882 11.3915L39.779 17.7842L37.912 17.9568L37.1748 9.98078L43.2987 9.41477L43.445 10.998Z" fill="white"/>
<path d="M50.5627 17.2105C49.7528 17.2276 49.0193 17.0681 48.3621 16.7319C47.7048 16.3957 47.1847 15.9216 46.8016 15.3096C46.4284 14.6873 46.2334 13.9813 46.2167 13.1915C46.2 12.4016 46.3651 11.693 46.7119 11.0655C47.0687 10.4378 47.5683 9.94216 48.2108 9.5785C48.8532 9.21483 49.5794 9.02443 50.3892 9.00731C51.209 8.98997 51.9475 9.14939 52.6048 9.48557C53.262 9.82175 53.7772 10.296 54.1502 10.9082C54.5332 11.5202 54.7331 12.2212 54.7498 13.011C54.7665 13.8008 54.5966 14.5146 54.24 15.1523C53.8932 15.7797 53.3985 16.2753 52.7561 16.639C52.1136 17.0026 51.3825 17.1931 50.5627 17.2105ZM50.5287 15.6058C51.2186 15.5912 51.7836 15.3492 52.2238 14.8798C52.6639 14.4104 52.8761 13.8008 52.8602 13.051C52.8444 12.3011 52.6066 11.701 52.147 11.2506C51.6874 10.8003 51.1126 10.5824 50.4228 10.597C49.733 10.6115 49.1679 10.8535 48.7278 11.323C48.2976 11.7922 48.0904 12.4017 48.1063 13.1515C48.1222 13.9013 48.3549 14.5016 48.8045 14.9521C49.2641 15.4025 49.8389 15.6204 50.5287 15.6058Z" fill="white"/>
<path d="M61.3377 17.284C60.5083 17.2533 59.7703 17.0507 59.1237 16.6765C58.4771 16.3023 57.9805 15.7985 57.6337 15.1652C57.2873 14.5219 57.1288 13.8056 57.1581 13.0161C57.1874 12.2267 57.3984 11.529 57.7911 10.9231C58.1838 10.3173 58.7115 9.85153 59.374 9.52588C60.0465 9.20059 60.8025 9.05352 61.6419 9.08467C62.4314 9.11396 63.115 9.29944 63.6927 9.6411C64.2804 9.98312 64.7131 10.4595 64.9906 11.0702L63.5204 11.8562C63.3043 11.478 63.0247 11.1924 62.6816 10.9995C62.3489 10.7971 61.9777 10.6882 61.568 10.673C60.8685 10.6471 60.2803 10.8554 59.8036 11.298C59.3272 11.7307 59.0749 12.3267 59.0468 13.0862C59.0186 13.8457 59.2208 14.4636 59.6534 14.94C60.0964 15.4067 60.6727 15.6532 61.3822 15.6796C61.7919 15.6948 62.17 15.6187 62.5164 15.4515C62.8732 15.2746 63.1734 15.0055 63.417 14.6443L64.8249 15.5371C64.4928 16.1252 64.0209 16.573 63.4091 16.8806C62.8076 17.1785 62.1171 17.3129 61.3377 17.284Z" fill="white"/>
<path d="M71.9933 9.71588C72.7705 9.78156 73.4487 10.0095 74.0279 10.3996C74.6171 10.7906 75.0599 11.3098 75.3565 11.9571C75.653 12.6043 75.7672 13.3315 75.699 14.1386C75.6308 14.9458 75.3958 15.6485 74.994 16.2468C74.593 16.8351 74.0693 17.2725 73.4229 17.5591C72.7864 17.8465 72.0796 17.9574 71.3023 17.8917C70.2262 17.8008 69.4045 17.3701 68.8374 16.5996L68.5102 20.4708L66.6419 20.3129L67.5615 9.43166L69.3401 9.58198L69.2517 10.6283C69.5926 10.2757 69.9953 10.0237 70.4597 9.87229C70.934 9.7217 71.4452 9.66956 71.9933 9.71588ZM71.2282 16.2748C71.9158 16.3329 72.4981 16.1513 72.9753 15.7299C73.4625 15.3095 73.7376 14.7256 73.8008 13.9782C73.8639 13.2309 73.6907 12.6091 73.281 12.1128C72.8813 11.6174 72.3377 11.3407 71.6501 11.2825C71.2017 11.2447 70.7893 11.3152 70.4129 11.4941C70.0373 11.6631 69.7289 11.9281 69.4877 12.289C69.2464 12.65 69.1048 13.0796 69.0626 13.5778C69.0205 14.076 69.0881 14.5233 69.2654 14.9196C69.4426 15.316 69.7018 15.6339 70.0428 15.8735C70.3847 16.1031 70.7798 16.2369 71.2282 16.2748Z" fill="white"/>
<path d="M81.0265 18.91C80.2231 18.8065 79.5215 18.5396 78.9215 18.1094C78.3216 17.6792 77.8778 17.133 77.59 16.4708C77.3135 15.8 77.2257 15.0728 77.3266 14.2893C77.4276 13.5058 77.6962 12.8296 78.1325 12.2606C78.5787 11.693 79.1465 11.2772 79.8359 11.0131C80.5253 10.749 81.2716 10.6687 82.075 10.7722C82.8883 10.877 83.5949 11.1445 84.1948 11.5747C84.7948 12.0049 85.2337 12.5505 85.5115 13.2114C85.7992 13.8736 85.8926 14.5964 85.7917 15.38C85.6907 16.1635 85.4165 16.844 84.969 17.4216C84.5328 17.9905 83.9699 18.407 83.2805 18.671C82.5911 18.9351 81.8398 19.0148 81.0265 18.91ZM81.2316 17.3181C81.9159 17.4063 82.5107 17.251 83.0158 16.8523C83.5208 16.4536 83.8213 15.8823 83.9172 15.1384C84.013 14.3946 83.8671 13.7658 83.4796 13.2521C83.0921 12.7383 82.5562 12.4374 81.8718 12.3492C81.1875 12.261 80.5927 12.4163 80.0877 12.815C79.5925 13.215 79.297 13.787 79.2011 14.5308C79.1053 15.2747 79.2462 15.9028 79.6238 16.4153C80.0113 16.929 80.5473 17.23 81.2316 17.3181Z" fill="white"/>
<path d="M96.5731 13.0576L95.2424 20.9563L93.3935 20.6448L93.9093 17.583C93.0885 17.8199 92.264 17.8686 91.4357 17.729C90.42 17.5579 89.68 17.195 89.2157 16.6401C88.7531 16.0754 88.6032 15.3099 88.766 14.3435L89.1921 11.8141L91.0411 12.1256L90.6349 14.5367C90.5502 15.0396 90.6349 15.4392 90.8892 15.7356C91.1435 16.0319 91.5419 16.2258 92.0842 16.3172C92.7745 16.4335 93.4601 16.3969 94.1411 16.2073L94.7242 12.7461L96.5731 13.0576Z" fill="white"/>
<path d="M99.9171 13.6578L101.753 14.0373L101.094 17.2249L105.046 18.0417L105.705 14.8541L107.541 15.2336L105.92 23.0778L104.083 22.6983L104.724 19.5988L100.773 18.782L100.132 21.8815L98.2957 21.5019L99.9171 13.6578Z" fill="white"/>
<path d="M113.566 16.5538C114.711 16.8368 115.516 17.3293 115.982 18.0314C116.459 18.7262 116.561 19.6269 116.287 20.7336L115.161 25.2916L113.443 24.867L113.677 23.9205C113.37 24.2051 112.985 24.3881 112.521 24.4694C112.071 24.5434 111.554 24.5085 110.971 24.3646C110.389 24.2206 109.903 23.9976 109.514 23.6955C109.128 23.3837 108.856 23.0231 108.7 22.6137C108.556 22.1969 108.539 21.7652 108.649 21.3187C108.822 20.6197 109.217 20.125 109.835 19.8347C110.464 19.5371 111.338 19.5261 112.454 19.802L114.464 20.2985L114.492 20.182C114.627 19.6383 114.565 19.1801 114.307 18.8073C114.058 18.4369 113.614 18.1726 112.973 18.0143C112.536 17.9063 112.087 17.8675 111.627 17.8979C111.175 17.9307 110.774 18.0325 110.423 18.2032L110.037 16.7018C110.522 16.4918 111.071 16.3751 111.684 16.3516C112.298 16.3281 112.925 16.3955 113.566 16.5538ZM111.677 23.1329C112.134 23.2457 112.562 23.2433 112.962 23.1257C113.374 23.0009 113.7 22.7623 113.942 22.41L114.165 21.5071L112.286 21.043C111.238 20.784 110.629 20.9991 110.458 21.6884C110.377 22.0184 110.443 22.3129 110.657 22.5719C110.871 22.8308 111.211 23.0178 111.677 23.1329Z" fill="white"/>
<path d="M127.117 20.3572L124.846 28.0387L123.235 27.5625L123.92 25.2466L121.891 24.6471L119.639 26.4997L117.711 25.93L120.281 23.9052C119.781 23.549 119.441 23.1304 119.26 22.6493C119.091 22.1615 119.093 21.6251 119.266 21.0401C119.527 20.1578 120.04 19.5691 120.805 19.2738C121.57 18.9785 122.499 18.9925 123.592 19.3156L127.117 20.3572ZM123.203 20.843C122.043 20.5 121.334 20.7649 121.076 21.6376C120.821 22.5007 121.254 23.098 122.376 23.4297L124.29 23.9951L125.059 21.3914L123.203 20.843Z" fill="white"/>
<path d="M142.179 26.5918L138.438 33.6747L136.793 32.8061L139.791 27.1291L136.303 25.2868L133.305 30.9638L131.647 30.0881L135.388 23.0052L142.179 26.5918Z" fill="white"/>
<path d="M145.24 36.8099C144.489 36.5061 143.878 36.0701 143.407 35.5019C142.935 34.9337 142.644 34.2929 142.534 33.5794C142.436 32.8603 142.536 32.1347 142.832 31.4023C143.128 30.6699 143.56 30.0839 144.126 29.6441C144.701 29.2081 145.356 28.9498 146.09 28.8691C146.824 28.7883 147.566 28.8999 148.317 29.2036C149.077 29.5111 149.693 29.949 150.164 30.5172C150.635 31.0854 150.922 31.7244 151.023 32.4341C151.133 33.1476 151.041 33.8705 150.744 34.6029C150.448 35.3352 150.01 35.9241 149.431 36.3693C148.865 36.8091 148.215 37.0693 147.481 37.15C146.747 37.2308 146 37.1174 145.24 36.8099ZM145.842 35.322C146.481 35.5807 147.096 35.5813 147.686 35.3236C148.275 35.0659 148.711 34.5894 148.992 33.8942C149.273 33.1989 149.292 32.5537 149.047 31.9585C148.802 31.3633 148.36 30.9363 147.721 30.6776C147.081 30.4188 146.466 30.4183 145.877 30.676C145.296 30.9374 144.865 31.4158 144.584 32.111C144.303 32.8063 144.28 33.4497 144.515 34.0411C144.76 34.6363 145.202 35.0632 145.842 35.322Z" fill="white"/>
<path d="M161.438 40.7778L160.39 43.986L158.722 43.4413L159.276 41.7445L153.401 39.8261L152.847 41.523L151.193 40.9829L152.24 37.7746L152.597 37.891C153.088 38.0303 153.517 37.8284 153.883 37.2854C154.263 36.736 154.661 35.9193 155.078 34.8352L156.03 32.2584L162.304 34.307L160.311 40.4099L161.438 40.7778ZM156.662 35.4943C156.338 36.3564 156.034 37.0461 155.749 37.5633C155.465 38.0805 155.141 38.4272 154.779 38.6034L158.529 39.8279L160.028 35.2365L157.105 34.282L156.662 35.4943Z" fill="white"/>
<path d="M171.949 43.5943L171.098 46.8603L169.4 46.4177L169.85 44.6904L163.87 43.1322L163.42 44.8595L161.736 44.4208L162.587 41.1548L162.95 41.2494C163.448 41.3586 163.864 41.1311 164.197 40.5668C164.542 39.9954 164.89 39.156 165.241 38.0486L166.035 35.4188L172.421 37.0829L170.803 43.2955L171.949 43.5943ZM166.862 38.6104C166.591 39.4906 166.329 40.1975 166.077 40.731C165.824 41.2645 165.522 41.6302 165.171 41.828L168.988 42.8227L170.206 38.1488L167.23 37.3735L166.862 38.6104Z" fill="white"/>
<path d="M182.788 43.3724C182.764 43.5001 182.719 43.6799 182.654 43.9118L176.482 42.7277C176.478 43.3279 176.67 43.8431 177.056 44.2735C177.453 44.696 177.991 44.9722 178.668 45.1022C179.533 45.268 180.299 45.1198 180.968 44.6576L181.738 45.9812C181.303 46.3357 180.795 46.5692 180.213 46.6816C179.632 46.794 179.002 46.7853 178.325 46.6553C177.46 46.4895 176.732 46.1716 176.14 45.7016C175.548 45.2317 175.129 44.6574 174.882 43.9788C174.647 43.2923 174.604 42.5611 174.753 41.7852C174.9 41.0192 175.204 40.3647 175.664 39.8217C176.137 39.2708 176.715 38.8829 177.4 38.6578C178.084 38.4328 178.815 38.3947 179.591 38.5435C180.357 38.6905 181.006 38.9933 181.539 39.4519C182.084 39.9026 182.464 40.4694 182.679 41.1522C182.906 41.827 182.943 42.5671 182.788 43.3724ZM179.308 40.0166C178.719 39.9036 178.184 39.9843 177.704 40.2587C177.235 40.5252 176.901 40.9397 176.701 41.5022L181.165 42.3584C181.196 41.7738 181.044 41.266 180.709 40.8352C180.374 40.4044 179.907 40.1316 179.308 40.0166Z" fill="white"/>
<path d="M190.957 40.3478C191.732 40.4408 192.401 40.6924 192.966 41.1027C193.542 41.5142 193.966 42.0485 194.239 42.7058C194.513 43.3631 194.602 44.0939 194.505 44.8981C194.409 45.7023 194.149 46.3963 193.726 46.9801C193.305 47.554 192.766 47.9728 192.11 48.2365C191.464 48.5014 190.754 48.5873 189.979 48.4944C188.907 48.3657 188.101 47.9063 187.561 47.1164L187.098 50.9737L185.237 50.7502L186.538 39.9081L188.31 40.1208L188.185 41.1633C188.538 40.823 188.95 40.5853 189.419 40.4503C189.898 40.3164 190.411 40.2823 190.957 40.3478ZM189.962 46.8758C190.647 46.958 191.236 46.797 191.727 46.3927C192.229 45.9896 192.524 45.4157 192.614 44.6711C192.703 43.9264 192.552 43.2989 192.16 42.7886C191.778 42.2794 191.244 41.9837 190.559 41.9015C190.112 41.8479 189.698 41.9038 189.315 42.0694C188.934 42.2251 188.616 42.4791 188.363 42.8313C188.109 43.1836 187.952 43.608 187.893 44.1044C187.833 44.6008 187.885 45.0502 188.048 45.4525C188.211 45.8548 188.459 46.1817 188.791 46.4331C189.125 46.6746 189.515 46.8221 189.962 46.8758Z" fill="white"/>
<path d="M204.588 46.1779L203.238 46.1424L203.154 49.3513L201.295 49.3024L201.379 46.0935L200.029 46.0581L197.996 49.2157L195.777 49.1573L198.509 45.0878L196.182 41.1552L198.176 41.2077L200.04 44.4978L201.42 44.5341L201.505 41.2952L203.364 41.3441L203.279 44.583L204.644 44.6188L206.693 41.4316L208.688 41.484L206.157 45.2888L208.687 49.4968L206.453 49.4381L204.588 46.1779Z" fill="white"/>
<path d="M214.43 45.8763L212.979 45.9941L213.239 49.1936L211.371 49.3455L210.722 41.3618L212.591 41.2099L212.853 44.4393L214.348 44.3178L216.448 40.8965L218.451 40.7337L215.863 44.8117L219.294 48.7016L217.097 48.8802L214.43 45.8763Z" fill="white"/>
<path d="M223.36 39.8442C224.519 39.6232 225.457 39.7346 226.173 40.1783C226.896 40.6104 227.365 41.3864 227.579 42.5062L228.458 47.1181L226.719 47.4496L226.537 46.4919C226.376 46.8788 226.103 47.2058 225.716 47.473C225.337 47.7285 224.853 47.9124 224.264 48.0248C223.674 48.1372 223.14 48.1373 222.66 48.0251C222.179 47.9031 221.782 47.6887 221.469 47.3819C221.164 47.0634 220.968 46.6783 220.882 46.2264C220.747 45.5191 220.9 44.9047 221.34 44.383C221.788 43.8497 222.577 43.4753 223.706 43.2599L225.74 42.8721L225.717 42.7543C225.612 42.2042 225.365 41.8136 224.975 41.5826C224.594 41.3497 224.08 41.2951 223.432 41.4187C222.99 41.503 222.565 41.6551 222.16 41.8751C221.763 42.0931 221.441 42.3531 221.193 42.6548L220.216 41.4517C220.568 41.0587 221.019 40.7234 221.566 40.4459C222.114 40.1684 222.712 39.9678 223.36 39.8442ZM224.391 46.6109C224.853 46.5229 225.241 46.342 225.555 46.0683C225.877 45.7829 226.075 45.4297 226.147 45.0086L225.973 44.0951L224.072 44.4575C223.011 44.6598 222.547 45.1097 222.68 45.8071C222.744 46.1411 222.927 46.3811 223.23 46.5269C223.532 46.6728 223.92 46.7008 224.391 46.6109Z" fill="white"/>
<path d="M233.267 45.9807C232.941 46.0759 232.63 46.0467 232.336 45.8931C232.038 45.7299 231.839 45.4755 231.738 45.1299C231.634 44.7747 231.661 44.4545 231.817 44.1693C231.983 43.8813 232.234 43.6883 232.57 43.5903C232.906 43.4923 233.217 43.5215 233.502 43.6779C233.797 43.8315 233.996 44.0859 234.1 44.4411C234.2 44.7867 234.169 45.1083 234.006 45.4059C233.84 45.6939 233.594 45.8855 233.267 45.9807Z" fill="white"/>
</svg>
