<svg width="81" height="19" viewBox="0 0 81 19" fill="none" xmlns="http://www.w3.org/2000/svg">
<path d="M18.72 6.24L14.82 17H11.82L9.4 10.32L6.9 17H3.9L0.02 6.24H2.96L5.5 13.52L8.14 6.24H10.78L13.34 13.52L15.96 6.24H18.72ZM30.4175 11.66C30.4175 11.7 30.3975 11.98 30.3575 12.5H22.2175C22.3642 13.1667 22.7108 13.6933 23.2575 14.08C23.8042 14.4667 24.4842 14.66 25.2975 14.66C25.8575 14.66 26.3508 14.58 26.7775 14.42C27.2175 14.2467 27.6242 13.98 27.9975 13.62L29.6575 15.42C28.6442 16.58 27.1642 17.16 25.2175 17.16C24.0042 17.16 22.9308 16.9267 21.9975 16.46C21.0642 15.98 20.3442 15.32 19.8375 14.48C19.3308 13.64 19.0775 12.6867 19.0775 11.62C19.0775 10.5667 19.3242 9.62 19.8175 8.78C20.3242 7.92667 21.0108 7.26667 21.8775 6.8C22.7575 6.32 23.7375 6.08 24.8175 6.08C25.8708 6.08 26.8242 6.30667 27.6775 6.76C28.5308 7.21333 29.1975 7.86667 29.6775 8.72C30.1708 9.56 30.4175 10.54 30.4175 11.66ZM24.8375 8.44C24.1308 8.44 23.5375 8.64 23.0575 9.04C22.5775 9.44 22.2842 9.98667 22.1775 10.68H27.4775C27.3708 10 27.0775 9.46 26.5975 9.06C26.1175 8.64667 25.5308 8.44 24.8375 8.44ZM42.9947 9.72C43.7947 9.97333 44.4214 10.4 44.8747 11C45.328 11.5867 45.5547 12.3133 45.5547 13.18C45.5547 14.4067 45.0747 15.3533 44.1147 16.02C43.168 16.6733 41.7814 17 39.9547 17H32.7147V3H39.5547C41.2614 3 42.568 3.32667 43.4747 3.98C44.3947 4.63333 44.8547 5.52 44.8547 6.64C44.8547 7.32 44.688 7.92667 44.3547 8.46C44.0347 8.99333 43.5814 9.41333 42.9947 9.72ZM35.9347 5.44V8.74H39.1547C39.9547 8.74 40.5614 8.6 40.9747 8.32C41.388 8.04 41.5947 7.62667 41.5947 7.08C41.5947 6.53333 41.388 6.12667 40.9747 5.86C40.5614 5.58 39.9547 5.44 39.1547 5.44H35.9347ZM39.7147 14.56C40.568 14.56 41.208 14.42 41.6347 14.14C42.0747 13.86 42.2947 13.4267 42.2947 12.84C42.2947 11.68 41.4347 11.1 39.7147 11.1H35.9347V14.56H39.7147ZM52.1277 6.08C53.7943 6.08 55.0743 6.48 55.9677 7.28C56.861 8.06667 57.3077 9.26 57.3077 10.86V17H54.3877V15.66C53.801 16.66 52.7077 17.16 51.1077 17.16C50.281 17.16 49.561 17.02 48.9477 16.74C48.3477 16.46 47.8877 16.0733 47.5677 15.58C47.2477 15.0867 47.0877 14.5267 47.0877 13.9C47.0877 12.9 47.461 12.1133 48.2077 11.54C48.9677 10.9667 50.1343 10.68 51.7077 10.68H54.1877C54.1877 10 53.981 9.48 53.5677 9.12C53.1543 8.74667 52.5343 8.56 51.7077 8.56C51.1343 8.56 50.5677 8.65333 50.0077 8.84C49.461 9.01333 48.9943 9.25333 48.6077 9.56L47.4877 7.38C48.0743 6.96667 48.7743 6.64667 49.5877 6.42C50.4143 6.19333 51.261 6.08 52.1277 6.08ZM51.8877 15.06C52.421 15.06 52.8943 14.94 53.3077 14.7C53.721 14.4467 54.0143 14.08 54.1877 13.6V12.5H52.0477C50.7677 12.5 50.1277 12.92 50.1277 13.76C50.1277 14.16 50.281 14.48 50.5877 14.72C50.9077 14.9467 51.341 15.06 51.8877 15.06Z" fill="white"/>
<path d="M61.3114 9.98C60.7647 9.98 60.3047 9.79333 59.9314 9.42C59.5581 9.04667 59.3714 8.58 59.3714 8.02C59.3714 7.44667 59.5581 6.98667 59.9314 6.64C60.3047 6.28 60.7647 6.1 61.3114 6.1C61.8581 6.1 62.3181 6.28 62.6914 6.64C63.0647 6.98667 63.2514 7.44667 63.2514 8.02C63.2514 8.58 63.0647 9.04667 62.6914 9.42C62.3181 9.79333 61.8581 9.98 61.3114 9.98ZM61.3114 17.16C60.7647 17.16 60.3047 16.9733 59.9314 16.6C59.5581 16.2267 59.3714 15.76 59.3714 15.2C59.3714 14.6267 59.5581 14.1667 59.9314 13.82C60.3047 13.46 60.7647 13.28 61.3114 13.28C61.8581 13.28 62.3181 13.46 62.6914 13.82C63.0647 14.1667 63.2514 14.6267 63.2514 15.2C63.2514 15.76 63.0647 16.2267 62.6914 16.6C62.3181 16.9733 61.8581 17.16 61.3114 17.16ZM70.9205 0.159999H73.7005L67.1005 19H64.3205L70.9205 0.159999ZM77.2877 0.159999H80.0677L73.4677 19H70.6877L77.2877 0.159999Z" fill="#F74848"/>
</svg>
