<svg width="243" height="303" viewBox="0 0 243 303" fill="none" xmlns="http://www.w3.org/2000/svg">
<path d="M0.864947 294.227C0.438281 294.578 0.376681 295.208 0.727374 295.635L6.44205 302.588C6.79274 303.014 7.4229 303.076 7.84957 302.725C8.27622 302.375 8.33782 301.745 7.98714 301.318L2.90741 295.138L9.08774 290.058C9.51441 289.707 9.57601 289.077 9.22531 288.65C8.87464 288.224 8.24448 288.162 7.81781 288.513L0.864947 294.227ZM193.797 2.21093C228.376 36.4173 241.865 72.5003 240.688 107.161C239.51 141.852 223.636 175.254 199.237 204.041C150.403 261.658 67.7055 300.466 1.59719 294.005L1.40264 295.995C68.2944 302.534 151.597 263.342 200.763 205.334C225.363 176.309 241.49 142.491 242.687 107.229C243.885 71.9372 230.124 35.3327 195.203 0.789066L193.797 2.21093Z" fill="white"/>
</svg>
