<svg width="96" height="113" viewBox="0 0 96 113" fill="none" xmlns="http://www.w3.org/2000/svg">
<path d="M0.292918 104.293C-0.0976074 104.683 -0.0976074 105.317 0.292918 105.707L6.65688 112.071C7.0474 112.462 7.68057 112.462 8.07109 112.071C8.46162 111.681 8.46162 111.047 8.07109 110.657L2.41424 105L8.07109 99.3432C8.46162 98.9526 8.46162 98.3195 8.07109 97.9289C7.68057 97.5384 7.0474 97.5384 6.65688 97.9289L0.292918 104.293ZM80.7014 2.10166C95.0013 21.086 98.4714 46.5328 86.7937 67.1955C75.1299 87.8337 48.1729 104 1.00003 104L1.00003 106C48.5983 106 76.3914 89.6664 88.5349 68.1795C100.664 46.7172 96.9991 20.414 82.2989 0.898342L80.7014 2.10166Z" fill="white"/>
</svg>
