<svg width="525" height="237" viewBox="0 0 525 237" fill="none" xmlns="http://www.w3.org/2000/svg">
<rect x="137" y="182.387" width="183" height="49" rx="24.5" fill="#2EC04F"/>
<path d="M191.68 213.387C195.669 213.387 197.976 210.913 197.976 206.822C197.976 202.75 195.669 200.296 191.814 200.296H187.442V213.387H191.68ZM189.417 211.661V202.022H191.693C194.556 202.022 196.033 203.735 196.033 206.822C196.033 209.922 194.556 211.661 191.571 211.661H189.417ZM204.415 213.585C207.182 213.585 208.991 211.559 208.991 208.522C208.991 205.467 207.182 203.441 204.415 203.441C201.647 203.441 199.838 205.467 199.838 208.522C199.838 211.559 201.647 213.585 204.415 213.585ZM204.421 211.98C202.612 211.98 201.768 210.402 201.768 208.516C201.768 206.637 202.612 205.039 204.421 205.039C206.217 205.039 207.061 206.637 207.061 208.516C207.061 210.402 206.217 211.98 204.421 211.98ZM212.954 213.387H214.898L216.892 206.298H217.039L219.033 213.387H220.983L223.866 203.569H221.89L219.979 210.747H219.883L217.966 203.569H215.991L214.06 210.779H213.964L212.04 203.569H210.065L212.954 213.387ZM227.591 207.557C227.591 205.991 228.549 205.096 229.879 205.096C231.176 205.096 231.963 205.946 231.963 207.372V213.387H233.874V207.142C233.874 204.713 232.538 203.441 230.531 203.441C229.054 203.441 228.089 204.125 227.635 205.167H227.514V203.569H225.679V213.387H227.591V207.557ZM238.348 200.296H236.437V213.387H238.348V200.296ZM245.055 213.585C247.823 213.585 249.632 211.559 249.632 208.522C249.632 205.467 247.823 203.441 245.055 203.441C242.287 203.441 240.479 205.467 240.479 208.522C240.479 211.559 242.287 213.585 245.055 213.585ZM245.062 211.98C243.253 211.98 242.409 210.402 242.409 208.516C242.409 206.637 243.253 205.039 245.062 205.039C246.858 205.039 247.702 206.637 247.702 208.516C247.702 210.402 246.858 211.98 245.062 211.98ZM254.623 213.604C256.246 213.604 257.16 212.779 257.525 212.044H257.601V213.387H259.468V206.867C259.468 204.01 257.218 203.441 255.658 203.441C253.881 203.441 252.245 204.157 251.605 205.946L253.402 206.355C253.683 205.659 254.399 204.988 255.684 204.988C256.917 204.988 257.55 205.633 257.55 206.745V206.79C257.55 207.487 256.834 207.474 255.07 207.679C253.21 207.896 251.305 208.382 251.305 210.613C251.305 212.543 252.756 213.604 254.623 213.604ZM255.038 212.07C253.958 212.07 253.178 211.584 253.178 210.638C253.178 209.615 254.086 209.251 255.191 209.104C255.811 209.021 257.282 208.855 257.556 208.58V209.846C257.556 211.009 256.63 212.07 255.038 212.07ZM265.689 213.578C267.479 213.578 268.182 212.485 268.527 211.859H268.687V213.387H270.553V200.296H268.642V205.16H268.527C268.182 204.553 267.53 203.441 265.702 203.441C263.33 203.441 261.585 205.314 261.585 208.497C261.585 211.674 263.305 213.578 265.689 213.578ZM266.111 211.949C264.404 211.949 263.515 210.446 263.515 208.478C263.515 206.528 264.385 205.064 266.111 205.064C267.779 205.064 268.674 206.426 268.674 208.478C268.674 210.542 267.76 211.949 266.111 211.949Z" fill="white"/>
<rect x="320.5" y="181.887" width="182" height="48" rx="24" fill="#F74848" stroke="#F74848"/>
<path d="M376.984 212.566C379.656 212.566 381.618 210.968 381.612 208.794C381.618 207.139 380.614 205.95 378.876 205.681V205.579C380.244 205.228 381.132 204.154 381.126 202.684C381.132 200.76 379.553 199.117 377.035 199.117C374.631 199.117 372.701 200.568 372.637 202.696H374.548C374.593 201.495 375.725 200.766 377.009 200.766C378.345 200.766 379.221 201.578 379.215 202.786C379.221 204.051 378.205 204.882 376.754 204.882H375.648V206.493H376.754C378.569 206.493 379.617 207.414 379.617 208.73C379.617 210.002 378.511 210.865 376.971 210.865C375.552 210.865 374.446 210.137 374.369 208.973H372.362C372.445 211.108 374.337 212.566 376.984 212.566ZM386.911 212.604C388.534 212.604 389.448 211.779 389.813 211.044H389.889V212.387H391.756V205.867C391.756 203.01 389.506 202.441 387.946 202.441C386.169 202.441 384.533 203.157 383.894 204.946L385.69 205.355C385.971 204.659 386.687 203.988 387.972 203.988C389.205 203.988 389.838 204.633 389.838 205.745V205.79C389.838 206.487 389.122 206.474 387.358 206.679C385.498 206.896 383.593 207.382 383.593 209.613C383.593 211.543 385.044 212.604 386.911 212.604ZM387.326 211.07C386.246 211.07 385.466 210.584 385.466 209.638C385.466 208.615 386.374 208.251 387.479 208.104C388.1 208.021 389.57 207.855 389.845 207.58V208.846C389.845 210.009 388.918 211.07 387.326 211.07ZM394.301 212.387H396.213V208.462H397.453L400.412 212.387H402.784L398.936 207.343L402.739 202.569H400.374L397.133 206.685H396.213V202.569H394.301V212.387ZM407.125 212.604C408.749 212.604 409.663 211.779 410.027 211.044H410.104V212.387H411.971V205.867C411.971 203.01 409.721 202.441 408.161 202.441C406.384 202.441 404.748 203.157 404.108 204.946L405.905 205.355C406.186 204.659 406.902 203.988 408.187 203.988C409.42 203.988 410.053 204.633 410.053 205.745V205.79C410.053 206.487 409.337 206.474 407.573 206.679C405.713 206.896 403.808 207.382 403.808 209.613C403.808 211.543 405.259 212.604 407.125 212.604ZM407.541 211.07C406.461 211.07 405.681 210.584 405.681 209.638C405.681 208.615 406.589 208.251 407.694 208.104C408.314 208.021 409.785 207.855 410.059 207.58V208.846C410.059 210.009 409.133 211.07 407.541 211.07ZM413.935 209.792C413.992 211.505 415.596 212.585 417.776 212.585C420.013 212.585 421.631 211.46 421.631 209.657C421.631 208.379 420.819 207.433 419.681 207.356V207.254C420.71 206.96 421.42 206.27 421.42 205.189C421.42 203.578 420.039 202.441 417.853 202.441C415.756 202.441 414.216 203.559 414.177 205.208H416.108C416.146 204.473 416.907 203.962 417.949 203.962C418.978 203.962 419.579 204.499 419.579 205.298C419.579 206.046 419.042 206.596 417.962 206.596H416.364V208.098H417.962C419.048 208.098 419.745 208.699 419.745 209.587C419.745 210.591 418.856 211.044 417.757 211.044C416.677 211.044 415.948 210.597 415.891 209.792H413.935ZM426.461 212.604C428.085 212.604 428.999 211.779 429.363 211.044H429.44V212.387H431.307V205.867C431.307 203.01 429.057 202.441 427.497 202.441C425.72 202.441 424.084 203.157 423.444 204.946L425.24 205.355C425.522 204.659 426.238 203.988 427.522 203.988C428.756 203.988 429.389 204.633 429.389 205.745V205.79C429.389 206.487 428.673 206.474 426.909 206.679C425.049 206.896 423.144 207.382 423.144 209.613C423.144 211.543 424.595 212.604 426.461 212.604ZM426.877 211.07C425.797 211.07 425.017 210.584 425.017 209.638C425.017 208.615 425.924 208.251 427.03 208.104C427.65 208.021 429.12 207.855 429.395 207.58V208.846C429.395 210.009 428.468 211.07 426.877 211.07ZM432.634 204.218H435.85V212.387H437.716V204.218H440.919V202.569H432.634V204.218ZM444.813 205.944V202.569H442.94V212.387H447.229C449.633 212.387 450.975 210.993 450.975 209.146C450.975 207.26 449.633 205.944 447.229 205.944H444.813ZM444.813 207.593H447.229C448.329 207.593 449.115 208.257 449.115 209.203C449.115 210.098 448.329 210.738 447.229 210.738H444.813V207.593Z" fill="white"/>
<rect y="191.387" width="177.697" height="49" rx="24.5" transform="rotate(-21.5796 0 191.387)" fill="#0038FF"/>
<path d="M53.7828 193.854L55.5541 193.154C54.7295 191.225 52.4462 190.492 49.9735 191.47C47.5305 192.437 46.2106 194.574 47.0405 196.672C47.7105 198.366 49.3157 198.879 51.4805 198.635L53.0742 198.458C54.5123 198.288 55.6861 198.319 56.1139 199.401C56.5841 200.59 55.7591 201.823 54.1959 202.441C52.7812 203.001 51.3551 202.836 50.7238 201.553L48.8812 202.282C49.8723 204.44 52.1166 205.127 54.8449 204.048C57.7039 202.917 58.7556 200.762 57.9399 198.699C57.0723 196.506 54.7806 196.429 53.0847 196.66L51.7736 196.821C50.7262 196.954 49.2838 197.009 48.829 195.841C48.4199 194.807 49.0617 193.666 50.5596 193.074C51.9564 192.521 53.2077 192.783 53.7828 193.854ZM60.9558 195.128C60.3799 193.672 60.972 192.475 62.2381 191.974C63.4626 191.49 64.5017 191.98 65.0306 193.317L67.2429 198.91L69.0202 198.207L66.7233 192.4C65.8229 190.123 64.1138 189.452 62.2355 190.195C60.8149 190.757 60.2035 191.714 60.1657 192.87L60.0528 192.914L58.2614 188.385L56.5079 189.078L61.3227 201.252L63.0999 200.549L60.9558 195.128ZM75.3105 195.932C77.8842 194.915 78.8211 192.365 77.7044 189.542C76.5807 186.7 74.1533 185.481 71.5795 186.499C69.0057 187.517 68.0688 190.067 69.1926 192.908C70.3093 195.732 72.7367 196.95 75.3105 195.932ZM74.7263 194.438C73.0442 195.103 71.6789 193.946 70.9853 192.192C70.2942 190.445 70.491 188.648 72.1732 187.983C73.8434 187.322 75.2158 188.498 75.907 190.246C76.6005 191.999 76.3966 193.778 74.7263 194.438ZM83.1788 192.607L84.9858 191.893L84.2331 184.567L84.3698 184.513L88.8315 190.372L90.6445 189.655L89.7141 179.464L87.8774 180.191L88.7403 187.569L88.6511 187.604L84.2278 181.634L82.3911 182.361L83.2479 189.775L83.1587 189.811L78.7177 183.814L76.881 184.54L83.1788 192.607ZM99.4416 186.175L101.219 185.472L98.9925 179.843C98.5058 178.613 99.0292 177.416 100.04 177.016C101.026 176.626 101.969 177.01 102.361 178.002L104.761 184.071L106.533 183.37L104.231 177.551C103.796 176.452 104.153 175.389 105.312 174.931C106.251 174.56 107.231 174.777 107.72 176.013L110.075 181.969L111.853 181.266L109.431 175.144C108.606 173.058 107.03 172.478 105.377 173.132C104.064 173.651 103.326 174.672 103.272 175.82L103.177 175.858C102.383 175.017 101.305 174.742 100.087 175.224C98.8803 175.701 98.2202 176.657 98.2371 177.812L98.1242 177.856L97.5365 176.37L95.8305 177.045L99.4416 186.175ZM118.153 178.987C120.727 177.969 121.664 175.42 120.547 172.596C119.424 169.755 116.996 168.536 114.422 169.554C111.849 170.572 110.912 173.122 112.036 175.963C113.152 178.786 115.58 180.005 118.153 178.987ZM117.569 177.493C115.887 178.158 114.522 177.001 113.828 175.247C113.137 173.5 113.334 171.703 115.016 171.038C116.686 170.377 118.059 171.553 118.75 173.3C119.443 175.054 119.24 176.832 117.569 177.493ZM124.32 176.335L126.098 175.632L123.892 170.057C123.42 168.862 124 167.636 125.26 167.137C125.629 166.992 126.071 166.892 126.23 166.878L125.558 165.178C125.37 165.224 125.012 165.345 124.786 165.435C123.716 165.858 123.041 166.826 123.096 167.938L123.001 167.976L122.427 166.526L120.709 167.205L124.32 176.335ZM134.425 172.552C136.416 171.764 137.437 170.226 137.254 168.58L135.452 168.942C135.472 169.931 134.873 170.677 133.862 171.076C132.341 171.678 130.928 171.096 130.185 169.355L136.675 166.788L136.426 166.158C135.121 162.859 132.638 162.35 130.569 163.168C128.025 164.174 127.115 166.775 128.225 169.58C129.347 172.416 131.732 173.617 134.425 172.552ZM129.664 168.021C129.223 166.697 129.718 165.203 131.162 164.631C132.541 164.086 133.849 164.751 134.407 166.145L129.664 168.021Z" fill="white"/>
<rect x="173.969" y="100.644" width="182" height="48" rx="24" transform="rotate(14.25 173.969 100.644)" fill="black" stroke="white"/>
<path d="M199.785 138.237L201.7 138.723L202.833 134.262L205.435 134.923C208.378 135.67 210.285 134.262 210.88 131.92C211.473 129.584 210.479 127.446 207.53 126.697L203.008 125.548L199.785 138.237ZM203.245 132.639L204.505 127.676L206.909 128.287C208.805 128.768 209.318 129.993 208.953 131.431C208.588 132.868 207.545 133.731 205.674 133.256L203.245 132.639ZM214.729 142.236C216.805 142.763 218.533 142.114 219.348 140.672L217.674 139.911C217.112 140.724 216.19 140.978 215.137 140.711C213.551 140.308 212.746 139.009 213.162 137.162L219.928 138.881L220.095 138.224C220.968 134.786 219.252 132.919 217.096 132.371C214.445 131.698 212.185 133.274 211.442 136.198C210.692 139.153 211.923 141.524 214.729 142.236ZM213.521 135.776C213.938 134.445 215.215 133.522 216.72 133.905C218.157 134.27 218.829 135.574 218.465 137.032L213.521 135.776ZM229.417 135.632L223.333 134.087L220.916 143.603L222.744 144.067L224.755 136.15L229.011 137.231L229.417 135.632ZM231.432 143.511L233.19 136.59L231.375 136.129L228.958 145.645L230.971 146.157L236.906 140.291L235.147 147.217L236.962 147.678L239.379 138.162L237.384 137.656L231.432 143.511ZM243.413 149.521C245.661 150.092 247.46 149.111 248.135 147.311L246.332 146.853C245.836 147.821 244.882 148.226 243.823 147.957C242.256 147.558 241.578 145.995 242.105 143.919C242.622 141.881 243.977 140.86 245.525 141.253C246.703 141.552 247.232 142.478 247.204 143.421L249.007 143.878C249.296 141.908 248.053 140.233 245.891 139.684C243.208 139.003 240.961 140.582 240.223 143.488C239.494 146.356 240.649 148.819 243.413 149.521ZM250.642 142.724L253.758 143.516L251.748 151.433L253.557 151.893L255.567 143.975L258.671 144.763L259.077 143.165L251.048 141.126L250.642 142.724ZM257.714 156.747L259.566 157.218L260.848 152.168L260.96 152.197C261.14 152.889 261.553 154.121 263.287 154.562C265.592 155.147 267.734 153.726 268.516 150.647C269.299 147.561 268.063 145.315 265.764 144.731C263.998 144.283 263.087 145.199 262.609 145.704L262.454 145.665L262.846 144.122L261.037 143.662L257.714 156.747ZM261.643 148.882C262.148 146.893 263.351 145.793 264.968 146.204C266.647 146.631 267.129 148.263 266.649 150.153C266.165 152.061 264.928 153.297 263.273 152.877C261.681 152.472 261.135 150.883 261.643 148.882ZM272.103 156.827C273.677 157.227 274.766 156.653 275.3 156.03L275.374 156.049L275.044 157.35L276.853 157.809L278.458 151.49C279.161 148.721 277.12 147.615 275.609 147.231C273.886 146.794 272.124 147.085 271.064 148.662L272.704 149.501C273.148 148.895 274.007 148.421 275.253 148.737C276.448 149.041 276.903 149.822 276.629 150.9L276.618 150.943C276.446 151.619 275.756 151.43 273.995 151.194C272.139 150.947 270.173 150.949 269.624 153.111C269.149 154.982 270.294 156.368 272.103 156.827ZM272.883 155.443C271.836 155.177 271.2 154.514 271.433 153.597C271.685 152.606 272.654 152.476 273.762 152.606C274.384 152.678 275.85 152.879 276.184 152.68L275.872 153.906C275.586 155.034 274.426 155.834 272.883 155.443ZM289.493 150.89L287.691 150.432L285.68 158.349L281.535 157.297L283.546 149.379L281.731 148.918L279.314 158.434L286.649 160.297L285.87 163.364L287.704 163.83L288.869 159.245L287.462 158.888L289.493 150.89ZM293.005 159.148L294.763 152.228L292.947 151.767L290.531 161.283L292.544 161.794L298.479 155.928L296.72 162.855L298.535 163.316L300.952 153.8L298.957 153.293L293.005 159.148ZM306.7 165.39L308.441 165.832L310.858 156.316L306.837 155.294C304.644 154.737 303.018 155.531 302.563 157.322C302.246 158.573 302.668 159.663 303.693 160.379L300.456 163.803L302.351 164.285L305.372 161.089L307.646 161.666L306.7 165.39ZM308.027 160.167L305.623 159.556C304.613 159.3 304.16 158.618 304.372 157.808C304.574 156.988 305.352 156.599 306.436 156.874L308.716 157.453L308.027 160.167Z" fill="white"/>
<rect x="344.852" y="133.092" width="166" height="49" rx="24.5" transform="rotate(-1.91012 344.852 133.092)" fill="#FDD33F"/>
<path d="M401.784 154.372C401.243 151.589 398.998 150.027 396.231 150.119C392.846 150.232 390.432 152.851 390.572 157.036C390.711 161.22 393.281 163.674 396.68 163.56C399.555 163.464 401.596 161.593 401.938 158.991L399.945 159.051C399.662 160.736 398.287 161.703 396.632 161.758C394.39 161.833 392.64 160.171 392.533 156.97C392.427 153.795 394.056 151.995 396.311 151.92C397.978 151.864 399.408 152.757 399.791 154.439L401.784 154.372ZM408.427 163.188C411.193 163.096 412.934 161.01 412.833 157.976C412.731 154.922 410.855 152.957 408.089 153.049C405.323 153.141 403.582 155.227 403.684 158.281C403.786 161.315 405.661 163.28 408.427 163.188ZM408.38 161.584C406.572 161.644 405.676 160.095 405.613 158.21C405.551 156.332 406.341 154.706 408.149 154.646C409.944 154.586 410.84 156.155 410.903 158.033C410.966 159.918 410.175 161.524 408.38 161.584ZM416.843 156.876C416.791 155.311 417.719 154.385 419.048 154.34C420.345 154.297 421.159 155.12 421.206 156.545L421.407 162.557L423.317 162.493L423.109 156.251C423.028 153.824 421.65 152.597 419.644 152.664C418.169 152.713 417.227 153.429 416.808 154.485L416.686 154.489L416.633 152.892L414.8 152.953L415.127 162.766L417.037 162.702L416.843 156.876ZM430.132 152.442L428.12 152.509L428.041 150.158L426.131 150.222L426.21 152.573L424.772 152.621L424.823 154.154L426.261 154.106L426.454 159.9C426.507 161.683 427.896 162.5 429.403 162.418C430.01 162.391 430.415 162.263 430.636 162.172L430.238 160.606C430.111 160.635 429.877 160.701 429.57 160.711C428.95 160.732 428.388 160.546 428.351 159.441L428.171 154.042L430.183 153.975L430.132 152.442ZM435.435 162.306C437.058 162.252 437.944 161.398 438.284 160.651L438.36 160.648L438.405 161.99L440.27 161.928L440.053 155.411C439.958 152.556 437.69 152.062 436.131 152.114C434.355 152.173 432.744 152.943 432.165 154.753L433.973 155.102C434.231 154.397 434.924 153.702 436.208 153.659C437.441 153.618 438.095 154.242 438.133 155.354L438.134 155.399C438.157 156.095 437.441 156.106 435.685 156.369C433.833 156.648 431.946 157.197 432.02 159.427C432.084 161.356 433.57 162.368 435.435 162.306ZM435.799 160.759C434.72 160.795 433.924 160.336 433.893 159.39C433.858 158.368 434.753 157.974 435.854 157.79C436.471 157.686 437.935 157.471 438.2 157.187L438.242 158.452C438.281 159.615 437.39 160.706 435.799 160.759ZM446.955 161.903C449.274 161.826 450.728 160.383 450.876 158.466L449.017 158.528C448.809 159.596 448.006 160.25 446.913 160.286C445.297 160.34 444.211 159.027 444.14 156.887C444.069 154.785 445.086 153.427 446.683 153.374C447.897 153.333 448.663 154.075 448.899 154.988L450.758 154.926C450.487 152.953 448.827 151.691 446.597 151.765C443.831 151.857 442.112 154 442.212 156.996C442.31 159.954 444.105 161.998 446.955 161.903ZM457.275 151.537L455.263 151.604L455.184 149.253L453.274 149.317L453.353 151.668L451.915 151.716L451.966 153.249L453.404 153.201L453.597 158.995C453.65 160.778 455.04 161.595 456.546 161.513C457.153 161.486 457.558 161.357 457.779 161.267L457.381 159.7C457.254 159.73 457.02 159.796 456.713 159.806C456.093 159.827 455.531 159.641 455.494 158.535L455.314 153.137L457.326 153.07L457.275 151.537ZM466.663 153.622C466.216 152.108 464.988 151.152 462.867 151.222C460.65 151.296 459.118 152.518 459.176 154.255C459.222 155.648 460.096 156.546 461.95 156.894L463.623 157.203C464.576 157.382 465.03 157.789 465.051 158.402C465.076 159.162 464.285 159.784 463.033 159.825C461.889 159.863 461.138 159.396 460.876 158.439L459.039 158.782C459.416 160.509 460.893 161.438 463.097 161.365C465.467 161.285 467.067 159.972 467.008 158.196C466.961 156.81 466.051 155.983 464.236 155.628L462.665 155.322C461.577 155.103 461.098 154.754 461.083 154.09C461.051 153.336 461.851 152.772 462.937 152.736C464.125 152.696 464.696 153.336 464.942 153.986L466.663 153.622Z" fill="white"/>
<rect x="198.307" y="44.0244" width="182" height="48" rx="24" transform="rotate(19.13 198.307 44.0244)" fill="white" stroke="white"/>
<path d="M241.706 76.8335L232.164 73.5238L227.874 85.8918L229.734 86.537L233.471 75.7633L239.293 77.7826L235.556 88.5563L237.416 89.2015L241.706 76.8335ZM243.967 91.6835C246.582 92.5905 248.955 91.269 249.95 88.4004C250.951 85.5137 249.906 83.0065 247.291 82.0995C244.676 81.1925 242.303 82.5141 241.302 85.4007C240.307 88.2693 241.352 90.7765 243.967 91.6835ZM244.499 90.1698C242.789 89.577 242.51 87.8088 243.128 86.0273C243.744 84.2518 245.064 83.0186 246.773 83.6114C248.47 84.2 248.744 85.9863 248.128 87.7618C247.51 89.5433 246.196 90.7584 244.499 90.1698ZM248.537 96.0564L250.325 96.6764L251.253 94.0011L257.721 96.2446L256.793 98.9199L258.556 99.5315L260.027 95.2921L258.601 94.7978L261.276 87.0859L254.972 84.899L253.481 88.2588C252.478 90.5289 251.771 91.6503 250.763 92.0788L250.008 91.8169L248.537 96.0564ZM252.695 92.7491C253.611 92.0992 254.339 90.7415 255.197 88.8537L256.054 87.0064L258.977 88.0202L256.838 94.1861L252.695 92.7491ZM260.042 100.947L261.848 101.573L263.555 96.6514L263.664 96.6891C263.785 97.3941 264.091 98.6572 265.782 99.2437C268.028 100.023 270.283 98.7889 271.324 95.7875C272.367 92.78 271.327 90.4366 269.086 89.6595C267.365 89.0625 266.378 89.8975 265.859 90.3602L265.708 90.3078L266.23 88.8041L264.467 88.1924L260.042 100.947ZM264.627 93.4442C265.3 91.5057 266.591 90.5126 268.167 91.0593C269.804 91.627 270.146 93.2948 269.507 95.1368C268.862 96.9968 267.524 98.1227 265.911 97.5634C264.359 97.0251 263.951 95.3948 264.627 93.4442ZM275.587 102.652C278.202 103.559 280.575 102.237 281.57 99.3685C282.572 96.4819 281.527 93.9747 278.912 93.0676C276.297 92.1606 273.924 93.4822 272.922 96.3689C271.927 99.2374 272.972 101.745 275.587 102.652ZM276.119 101.138C274.41 100.545 274.13 98.777 274.748 96.9954C275.364 95.2199 276.685 93.9867 278.394 94.5795C280.091 95.1681 280.364 96.9544 279.749 98.7299C279.131 100.511 277.816 101.727 276.119 101.138ZM293.564 94.4153C292.985 94.6206 292.297 94.3818 291.339 94.0427C291.055 93.9442 290.747 93.8374 290.406 93.7261C287.378 92.7433 285.115 94.3533 283.644 98.5927L283.326 99.5106C282.144 102.917 283.213 105.297 285.804 106.195C288.395 107.094 290.698 105.877 291.699 102.99C292.688 100.14 291.586 97.9916 289.351 97.2166C288.005 96.7494 286.682 96.9335 285.68 97.8715L285.566 97.8317C286.586 95.5537 287.872 94.694 289.898 95.329C291.698 95.8926 292.825 96.2904 293.917 95.8165L293.564 94.4153ZM286.336 104.682C284.802 104.15 284.291 102.599 284.955 100.685C285.631 98.8149 286.927 98.0604 288.431 98.582C289.959 99.112 290.516 100.51 289.865 102.388C289.199 104.308 287.845 105.205 286.336 104.682ZM297.142 99.5266L295.373 98.9129L292.155 108.189L293.925 108.803L295.261 104.95L299.277 106.343L297.941 110.196L299.704 110.807L302.922 101.531L301.158 100.92L299.82 104.779L295.804 103.386L297.142 99.5266ZM306.053 113.219C308.076 113.921 309.853 113.421 310.787 112.054L309.185 111.153C308.555 111.915 307.615 112.09 306.588 111.734C305.042 111.198 304.351 109.835 304.923 108.03L311.518 110.318L311.74 109.678C312.902 106.326 311.352 104.32 309.25 103.591C306.666 102.695 304.28 104.073 303.291 106.923C302.292 109.804 303.317 112.27 306.053 113.219ZM305.398 106.68C305.927 105.388 307.278 104.578 308.745 105.087C310.146 105.573 310.704 106.93 310.217 108.351L305.398 106.68ZM316.034 116.681C318.057 117.383 319.834 116.883 320.768 115.516L319.166 114.615C318.536 115.377 317.596 115.552 316.569 115.196C315.023 114.66 314.332 113.297 314.904 111.493L321.499 113.78L321.721 113.14C322.883 109.788 321.333 107.782 319.231 107.053C316.647 106.157 314.261 107.535 313.272 110.385C312.273 113.266 313.298 115.732 316.034 116.681ZM315.379 110.142C315.908 108.85 317.259 108.04 318.726 108.549C320.127 109.035 320.685 110.392 320.199 111.813L315.379 110.142Z" fill="black"/>
<rect x="356.478" y="58.8237" width="169.825" height="49" rx="24.5" transform="rotate(8.52 356.478 58.8237)" fill="#E64AFF"/>
<path d="M412.395 97.7912L414.097 94.543L419.154 95.3006L419.823 98.9039L421.896 99.2146L419.177 85.5702L416.92 85.2321L410.322 97.4806L412.395 97.7912ZM414.912 92.9846L417.649 87.7456L417.75 87.7608L418.831 93.5718L414.912 92.9846ZM423.766 99.4946L425.612 99.7712L425.838 98.2603L425.996 98.284C426.245 98.9546 426.778 100.14 428.548 100.405C430.9 100.757 432.889 99.1291 433.36 95.9873C433.831 92.8392 432.377 90.7275 430.031 90.3762C428.23 90.1063 427.414 91.1087 426.989 91.6591L426.875 91.642L427.596 86.8313L425.705 86.5482L423.766 99.4946ZM426.346 94.9172C426.649 92.888 427.736 91.6741 429.386 91.9213C431.099 92.1779 431.742 93.7543 431.453 95.6824C431.162 97.6294 430.054 98.9824 428.366 98.7295C426.742 98.4861 426.04 96.959 426.346 94.9172ZM438.818 101.95C441.555 102.36 443.645 100.624 444.094 97.6214C444.547 94.5997 443.058 92.3278 440.321 91.9177C437.584 91.5076 435.495 93.2436 435.042 96.2652C434.592 99.268 436.081 101.54 438.818 101.95ZM439.062 100.364C437.273 100.096 436.673 98.4098 436.952 96.5449C437.23 94.6864 438.302 93.231 440.091 93.499C441.867 93.7651 442.465 95.4705 442.186 97.329C441.907 99.1939 440.839 100.63 439.062 100.364ZM452.238 99.6427C451.997 101.294 450.653 101.894 449.591 101.735C448.421 101.559 447.739 100.591 447.937 99.2699L448.828 93.3214L446.938 93.0383L446.013 99.2144C445.652 101.623 446.786 103.072 448.651 103.352C450.111 103.571 451.219 102.948 451.823 101.979L451.924 101.994L451.672 103.675L453.531 103.954L454.985 94.2438L453.089 93.9597L452.238 99.6427ZM462.058 95.3033L460.066 95.005L460.415 92.6786L458.525 92.3955L458.176 94.7218L456.754 94.5087L456.527 96.0259L457.949 96.239L457.09 101.973C456.819 103.735 458.038 104.79 459.535 104.982C460.136 105.066 460.558 105.013 460.791 104.964L460.684 103.351C460.554 103.358 460.311 103.379 460.008 103.334C459.395 103.242 458.875 102.957 459.039 101.864L459.839 96.5221L461.83 96.8204L462.058 95.3033Z" fill="white"/>
<rect x="28.6033" y="130.307" width="166.325" height="49" rx="24.5" transform="rotate(-26.98 28.6033 130.307)" fill="#F74848"/>
<path d="M87.6232 134.458L94.6696 130.871L93.8982 129.355L88.612 132.046L83.4443 121.896L81.6841 122.792L87.6232 134.458ZM100.316 128.218C102.783 126.963 103.476 124.336 102.098 121.63C100.712 118.908 98.1806 117.922 95.7141 119.178C93.2476 120.434 92.5548 123.06 93.941 125.783C95.3184 128.489 97.8498 129.474 100.316 128.218ZM99.5941 126.786C97.9821 127.606 96.5138 126.582 95.6584 124.902C94.8058 123.227 94.8327 121.42 96.4448 120.599C98.0455 119.784 99.5224 120.826 100.375 122.5C101.23 124.181 101.195 125.971 99.5941 126.786ZM111.638 126.593C113.865 125.459 115.066 123.564 113.921 121.314L109.368 112.371L107.699 113.22L108.421 114.639L108.296 114.703C107.718 114.315 106.61 113.631 104.981 114.461C102.867 115.537 102.162 117.997 103.58 120.783C105.001 123.574 107.347 124.252 109.415 123.199C111.021 122.381 111.181 121.159 111.204 120.445L111.313 120.389L112.189 122.11C112.887 123.483 112.249 124.554 110.956 125.212C109.538 125.934 108.623 125.503 108.065 125.156L106.909 126.505C107.915 127.341 109.547 127.658 111.638 126.593ZM109.072 121.595C107.551 122.369 106.164 121.605 105.289 119.884C104.433 118.204 104.544 116.505 106.082 115.722C107.569 114.965 108.984 115.772 109.886 117.544C110.805 119.35 110.541 120.847 109.072 121.595ZM127.653 106.735C125.753 103.003 122.369 101.879 119.35 103.416C116.319 104.958 115.243 108.354 117.143 112.085C119.039 115.81 122.421 116.944 125.451 115.401C128.47 113.864 129.552 110.466 127.653 106.735ZM125.91 107.622C127.357 110.464 126.639 112.774 124.634 113.794C122.623 114.818 120.339 114.037 118.892 111.195C117.445 108.352 118.157 106.046 120.168 105.022C122.173 104.001 124.463 104.779 125.91 107.622ZM136.375 105.07C137.138 106.554 136.392 107.823 135.435 108.31C134.382 108.846 133.264 108.454 132.658 107.264L129.929 101.903L128.226 102.77L131.059 108.336C132.164 110.506 133.929 111.028 135.609 110.172C136.925 109.502 137.465 108.352 137.394 107.212L137.485 107.166L138.257 108.681L139.932 107.828L135.477 99.0788L133.768 99.9487L136.375 105.07ZM141.85 95.8345L140.056 96.7479L138.988 94.6517L137.285 95.5188L138.352 97.615L137.071 98.2675L137.767 99.6346L139.048 98.9822L141.679 104.149C142.482 105.741 144.087 105.892 145.417 105.179C145.955 104.898 146.267 104.61 146.429 104.435L145.405 103.184C145.303 103.265 145.118 103.423 144.845 103.563C144.292 103.844 143.704 103.914 143.202 102.928L140.752 98.1151L142.546 97.2016L141.85 95.8345Z" fill="white"/>
<rect x="198.562" width="264" height="49" rx="24.5" transform="rotate(4.08689 198.562 0)" fill="#0038FF"/>
<path d="M267.082 29.3712C267.381 25.195 265.062 22.4852 261.683 22.2438C258.291 22.0014 255.617 24.3545 255.319 28.5307C255.021 32.7004 257.333 35.4161 260.724 35.6585C264.104 35.8999 266.784 33.5473 267.082 29.3712ZM265.131 29.2318C264.904 32.4133 263.097 34.0208 260.853 33.8605C258.602 33.6997 257.049 31.852 257.276 28.6705C257.504 25.489 259.304 23.881 261.554 24.0418C263.799 24.2021 265.359 26.0502 265.131 29.2318ZM273.03 36.5569C275.344 36.7223 276.942 35.4394 277.289 33.5481L275.433 33.4155C275.115 34.4566 274.248 35.0227 273.158 34.9448C271.545 34.8295 270.602 33.41 270.754 31.2741C270.904 29.1764 272.057 27.9323 273.651 28.0462C274.862 28.1327 275.547 28.9507 275.686 29.8833L277.541 30.0159C277.478 28.0248 275.959 26.5962 273.734 26.4372C270.973 26.2399 269.039 28.1909 268.826 31.1811C268.615 34.1331 270.186 36.3538 273.03 36.5569ZM278.947 28.5912L282.154 28.8203L281.572 36.9686L283.433 37.1016L284.016 28.9533L287.21 29.1816L287.327 27.5366L279.064 26.9462L278.947 28.5912ZM291.023 37.8617C292.642 37.9775 293.613 37.2201 294.028 36.5129L294.105 36.5183L294.009 37.8573L295.871 37.9903L296.336 31.487C296.539 28.637 294.336 27.9092 292.78 27.798C291.007 27.6714 289.324 28.2689 288.559 30.0085L290.322 30.5446C290.652 29.8697 291.414 29.2512 292.695 29.3428C293.926 29.4307 294.511 30.1198 294.432 31.2292L294.428 31.2738C294.379 31.9688 293.666 31.905 291.891 31.9833C290.02 32.0675 288.086 32.4163 287.927 34.6414C287.789 36.5669 289.161 37.7287 291.023 37.8617ZM291.546 36.3612C290.469 36.2842 289.726 35.744 289.793 34.8004C289.866 33.7803 290.797 33.4816 291.911 33.4137C292.535 33.375 294.013 33.314 294.307 33.0595L294.217 34.3219C294.134 35.4823 293.134 36.4746 291.546 36.3612ZM298.41 38.1717L303.09 38.5061C305.232 38.6592 306.566 37.665 306.677 36.1093C306.781 34.6556 305.729 33.6833 304.433 33.4369C305.654 33.2935 306.498 32.6873 306.58 31.5397C306.695 29.933 305.377 28.8263 303.171 28.6687L299.11 28.3785L298.41 38.1717ZM300.316 36.7058L300.51 33.9833L303.398 34.1897C304.342 34.2571 304.87 34.8523 304.805 35.7641C304.749 36.5419 304.148 36.9796 303.204 36.9121L300.316 36.7058ZM300.61 32.587L300.786 30.1196L303.056 30.2818C304.14 30.3592 304.764 30.8588 304.711 31.6111C304.654 32.3954 303.97 32.8271 302.899 32.7506L300.61 32.587ZM310.639 36.3603L311.147 29.2386L309.279 29.1051L308.58 38.8983L310.652 39.0464L315.458 32.2253L314.949 39.3534L316.817 39.4869L317.517 29.6937L315.464 29.547L310.639 36.3603ZM318.748 31.435L321.955 31.6641L321.373 39.8124L323.234 39.9454L323.817 31.7972L327.011 32.0254L327.128 30.3804L318.865 29.79L318.748 31.435ZM330.772 34.0244L331.013 30.658L329.145 30.5245L328.445 40.3177L332.723 40.6234C335.12 40.7947 336.559 39.5004 336.69 37.6578C336.825 35.777 335.58 34.3679 333.182 34.1966L330.772 34.0244ZM330.655 35.6693L333.065 35.8415C334.161 35.9199 334.898 36.639 334.831 37.5826C334.767 38.4752 333.937 39.0568 332.841 38.9784L330.431 38.8062L330.655 35.6693ZM342.953 38.7525C342.888 40.4654 344.412 41.6572 346.586 41.8126C348.817 41.972 350.511 40.9651 350.639 39.1671C350.73 37.892 349.988 36.8905 348.859 36.7329L348.866 36.6309C349.913 36.411 350.67 35.7729 350.747 34.6954C350.862 33.0887 349.566 31.8554 347.385 31.6996C345.294 31.5502 343.678 32.5562 343.522 34.1984L345.448 34.336C345.538 33.6055 346.333 33.1497 347.373 33.2239C348.399 33.2973 348.96 33.8756 348.903 34.6726C348.85 35.4186 348.275 35.9286 347.198 35.8517L345.604 35.7378L345.497 37.2361L347.091 37.35C348.174 37.4274 348.827 38.0764 348.763 38.9626C348.692 39.9636 347.773 40.353 346.677 40.2746C345.599 40.1976 344.904 39.6994 344.904 38.8919L342.953 38.7525ZM355.248 42.4507C356.867 42.5664 357.838 41.8091 358.253 41.1018L358.33 41.1073L358.234 42.4462L360.096 42.5792L360.561 36.0759C360.764 33.2259 358.561 32.4981 357.005 32.387C355.232 32.2603 353.549 32.8578 352.784 34.5975L354.546 35.1335C354.877 34.4586 355.639 33.8402 356.92 33.9317C358.151 34.0197 358.736 34.7087 358.657 35.8181L358.653 35.8627C358.604 36.5577 357.891 36.4939 356.116 36.5722C354.245 36.6564 352.311 37.0052 352.152 39.2304C352.014 41.1559 353.386 42.3177 355.248 42.4507ZM355.771 40.9501C354.694 40.8731 353.951 40.333 354.018 39.3893C354.091 38.3692 355.022 38.0705 356.136 38.0027C356.76 37.964 358.238 37.903 358.532 37.6484L358.442 38.9108C358.359 40.0712 357.359 41.0635 355.771 40.9501ZM368.475 43.1779L370.267 43.3059L370.967 33.5127L366.829 33.2171C364.572 33.0558 363.111 34.1242 362.98 35.9668C362.888 37.2547 363.495 38.253 364.631 38.7763L362.049 42.7187L364 42.8581L366.409 39.1789L368.749 39.3461L368.475 43.1779ZM368.859 37.8031L366.386 37.6264C365.346 37.5521 364.78 36.9605 364.846 36.1257C364.9 35.2837 365.597 34.7632 366.713 34.8429L369.059 35.0105L368.859 37.8031ZM372.805 43.4872L377.484 43.8216C379.627 43.9747 380.96 42.9805 381.071 41.4249C381.175 39.9712 380.123 38.9988 378.827 38.7524C380.048 38.609 380.893 38.0029 380.975 36.8552C381.09 35.2485 379.772 34.1418 377.566 33.9842L373.504 33.694L372.805 43.4872ZM374.71 42.0213L374.905 39.2988L377.793 39.5052C378.736 39.5726 379.264 40.1679 379.199 41.0796C379.143 41.8575 378.542 42.2951 377.598 42.2277L374.71 42.0213ZM375.004 37.9025L375.181 35.4351L377.45 35.5973C378.534 35.6747 379.159 36.1743 379.105 36.9267C379.049 37.7109 378.364 38.1426 377.293 38.0661L375.004 37.9025ZM382.974 44.2139L384.88 44.3501L385.16 40.4353L386.397 40.5237L389.069 44.6494L391.435 44.8184L387.956 39.5136L392.09 35.022L389.731 34.8534L386.205 38.7285L385.287 38.6629L385.58 34.5568L383.674 34.4206L382.974 44.2139ZM393.911 48.6865C395.485 48.799 396.539 48.0476 397.216 46.5452L402.057 35.7534L399.999 35.5871L396.976 43.0098L396.874 43.0025L394.936 35.2254L392.896 35.0796L395.771 45.2564L395.488 45.8898C394.911 47.1559 394.221 47.2155 393.196 46.8539L392.625 48.3832C392.847 48.5016 393.337 48.6455 393.911 48.6865Z" fill="white"/>
</svg>
