<svg width="292" height="135" viewBox="0 0 292 135" fill="none" xmlns="http://www.w3.org/2000/svg">
<path d="M160.878 109.555C121.008 123.842 83.2216 132.002 54.3683 133.655C39.9383 134.482 27.772 133.679 18.7056 131.22C9.62216 128.756 3.77056 124.665 1.74485 119.012C-0.28086 113.358 1.64094 106.482 7.0922 98.8098C12.5333 91.1518 21.421 82.805 33.0922 74.279C56.4291 57.231 90.7987 39.5357 130.669 25.249C170.54 10.9623 208.326 2.8021 237.179 1.14887C251.609 0.322056 263.775 1.12463 272.842 3.58415C281.925 6.04828 287.777 10.1391 289.803 15.7923C291.828 21.4455 289.906 28.3218 284.455 35.9941C279.014 43.652 270.126 51.9989 258.455 60.5249C235.118 77.5729 200.749 95.2682 160.878 109.555Z" stroke="#FDD33F"/>
</svg>
