<svg width="232" height="184" viewBox="0 0 232 184" fill="none" xmlns="http://www.w3.org/2000/svg">
<path d="M116 0L119.492 73.6236L150.192 4.0873L126.167 75.2564L181.345 15.986L131.938 78.377L206.692 34.6389L136.293 82.708L223.981 58.3886L138.845 87.8647L231.676 85.1248L139.366 93.3888L229.092 112.472L137.812 98.7895L216.459 138L134.32 103.587L194.9 159.441L129.2 107.355L166.331 174.889L122.907 109.758L133.289 182.972L116 110.584L98.7111 182.972L109.093 109.758L65.6695 174.889L102.8 107.355L37.1 159.441L97.6801 103.587L15.5411 138L94.1878 98.7895L2.90836 112.472L92.6335 93.3888L0.324356 85.1248L93.1555 87.8647L8.01865 58.3886L95.7073 82.708L25.3075 34.6389L100.062 78.377L50.6549 15.986L105.833 75.2564L81.8084 4.0873L112.508 73.6236L116 0Z" fill="#F74848"/>
<g clip-path="url(#clip0_79_38)">
<path d="M115.771 111.118C133.394 111.118 147.68 102.734 147.68 92.3924C147.68 82.0505 133.394 73.6667 115.771 73.6667C98.1479 73.6667 83.8617 82.0505 83.8617 92.3924C83.8617 102.734 98.1479 111.118 115.771 111.118Z" fill="white"/>
<path d="M115.771 111.118C133.394 111.118 147.68 102.734 147.68 92.3924C147.68 82.0505 133.394 73.6667 115.771 73.6667C98.1479 73.6667 83.8617 82.0505 83.8617 92.3924C83.8617 102.734 98.1479 111.118 115.771 111.118Z" fill="white"/>
<path d="M116 106.155C123.839 106.155 130.194 99.8004 130.194 91.9615C130.194 84.1225 123.839 77.7678 116 77.7678C108.161 77.7678 101.806 84.1225 101.806 91.9615C101.806 99.8004 108.161 106.155 116 106.155Z" fill="#0038FF"/>
<path d="M115.771 111.118C133.394 111.118 147.68 102.734 147.68 92.3924C147.68 82.0505 133.394 73.6667 115.771 73.6667C98.1479 73.6667 83.8617 82.0505 83.8617 92.3924C83.8617 102.734 98.1479 111.118 115.771 111.118Z" stroke="white" stroke-width="2" stroke-miterlimit="10" stroke-linecap="round" stroke-linejoin="round"/>
<path d="M116 106.155C123.839 106.155 130.194 99.8004 130.194 91.9615C130.194 84.1225 123.839 77.7678 116 77.7678C108.161 77.7678 101.806 84.1225 101.806 91.9615C101.806 99.8004 108.161 106.155 116 106.155Z" stroke="white" stroke-miterlimit="10" stroke-linecap="round" stroke-linejoin="round"/>
<circle cx="115" cy="93" r="9" fill="#353535"/>
</g>
<defs>
<clipPath id="clip0_79_38">
<rect width="66" height="66" fill="white" transform="translate(83 59)"/>
</clipPath>
</defs>
</svg>
