<svg width="180" height="101" viewBox="0 0 180 101" fill="none" xmlns="http://www.w3.org/2000/svg">
<path d="M102.504 76.3135C78.0474 88.0209 54.5231 95.6871 36.269 98.6259C27.1386 100.096 19.3559 100.378 13.445 99.409C7.51686 98.437 3.59503 96.2302 1.97251 92.8407C0.349998 89.4513 1.09062 85.0126 4.05131 79.7855C7.00333 74.5737 12.1041 68.6887 18.975 62.4988C32.7119 50.1235 53.4361 36.608 77.8929 24.9006C102.35 13.1931 125.874 5.52694 144.128 2.58818C153.258 1.11825 161.041 0.835948 166.952 1.80509C172.88 2.77708 176.802 4.98389 178.425 8.37332C180.047 11.7627 179.306 16.2015 176.346 21.4286C173.394 26.6403 168.293 32.5253 161.422 38.7152C147.685 51.0905 126.961 64.606 102.504 76.3135Z" stroke="#80FF6B"/>
</svg>
