<svg width="67" height="41" viewBox="0 0 67 41" fill="none" xmlns="http://www.w3.org/2000/svg">
<path d="M33.7709 39.118C51.3938 39.118 65.68 30.7342 65.68 20.3923C65.68 10.0504 51.3938 1.66663 33.7709 1.66663C16.1479 1.66663 1.86169 10.0504 1.86169 20.3923C1.86169 30.7342 16.1479 39.118 33.7709 39.118Z" fill="white"/>
<path d="M33.7709 39.118C51.3938 39.118 65.68 30.7342 65.68 20.3923C65.68 10.0504 51.3938 1.66663 33.7709 1.66663C16.1479 1.66663 1.86169 10.0504 1.86169 20.3923C1.86169 30.7342 16.1479 39.118 33.7709 39.118Z" fill="#0038FF"/>
<path d="M34.0001 34.1552C41.839 34.1552 48.1937 27.8004 48.1937 19.9615C48.1937 12.1225 41.839 5.76782 34.0001 5.76782C26.1611 5.76782 19.8064 12.1225 19.8064 19.9615C19.8064 27.8004 26.1611 34.1552 34.0001 34.1552Z" fill="white"/>
<path d="M33.7709 39.118C51.3938 39.118 65.68 30.7342 65.68 20.3923C65.68 10.0504 51.3938 1.66663 33.7709 1.66663C16.1479 1.66663 1.86169 10.0504 1.86169 20.3923C1.86169 30.7342 16.1479 39.118 33.7709 39.118Z" stroke="#0038FF" stroke-width="2" stroke-miterlimit="10" stroke-linecap="round" stroke-linejoin="round"/>
<path d="M34.0001 34.1552C41.839 34.1552 48.1937 27.8004 48.1937 19.9615C48.1937 12.1225 41.839 5.76782 34.0001 5.76782C26.1611 5.76782 19.8064 12.1225 19.8064 19.9615C19.8064 27.8004 26.1611 34.1552 34.0001 34.1552Z" stroke="white" stroke-miterlimit="10" stroke-linecap="round" stroke-linejoin="round"/>
<circle cx="34" cy="20" r="9" fill="black"/>
</svg>
