<svg width="32" height="44" viewBox="0 0 32 44" fill="none" xmlns="http://www.w3.org/2000/svg">
<path d="M18.68 14.92C18.68 17.08 18.2 18.86 17.24 20.26C16.24 21.7 14.8 23.26 12.92 24.94C11.48 26.22 10.42 27.32 9.74 28.24C9.02 29.2 8.66 30.28 8.66 31.48C8.66 33.16 9.34 34.52 10.7 35.56C12.06 36.6 13.88 37.12 16.16 37.12C20.48 37.12 23.74 35.58 25.94 32.5L31.76 36.28C30.04 38.64 27.82 40.44 25.1 41.68C22.38 42.96 19.18 43.6 15.5 43.6C11.02 43.6 7.46 42.62 4.82 40.66C2.14 38.74 0.799998 36.08 0.799998 32.68C0.799998 31.04 1.08 29.6 1.64 28.36C2.16 27.12 2.8 26.06 3.56 25.18C4.32 24.34 5.32 23.36 6.56 22.24C8.08 20.88 9.22 19.68 9.98 18.64C10.7 17.6 11.06 16.36 11.06 14.92H18.68ZM14.84 0.58C16.24 0.58 17.4 1.02 18.32 1.9C19.2 2.82 19.64 3.94 19.64 5.26C19.64 6.58 19.2 7.68 18.32 8.56C17.4 9.44 16.24 9.88 14.84 9.88C13.48 9.88 12.36 9.44 11.48 8.56C10.56 7.68 10.1 6.58 10.1 5.26C10.1 3.94 10.56 2.82 11.48 1.9C12.36 1.02 13.48 0.58 14.84 0.58Z" fill="#F74848"/>
</svg>
