<svg width="52" height="92" viewBox="0 0 52 92" fill="none" xmlns="http://www.w3.org/2000/svg">
<path d="M36.0076 90.6246C36.0764 91.1726 36.5764 91.561 37.1244 91.4922L46.0543 90.3708C46.6023 90.302 46.9907 89.802 46.9219 89.254C46.8531 88.706 46.3531 88.3176 45.8051 88.3864L37.8674 89.3832L36.8706 81.4455C36.8018 80.8976 36.3018 80.5091 35.7538 80.5779C35.2059 80.6467 34.8174 81.1468 34.8862 81.6947L36.0076 90.6246ZM0.670391 1.94403C21.2974 9.15106 33.7282 18.274 40.8389 27.8163C47.9383 37.3432 49.8006 47.3761 49.1277 56.5519C48.4532 65.7483 45.2298 74.0844 42.1551 80.1411C40.62 83.165 39.1277 85.6094 38.0213 87.295C37.4682 88.1376 37.012 88.7898 36.6957 89.2294C36.5376 89.4491 36.4145 89.6156 36.3317 89.7261C36.2904 89.7813 36.2591 89.8226 36.2386 89.8494C36.2284 89.8628 36.2208 89.8727 36.216 89.8789C36.2136 89.882 36.2119 89.8842 36.211 89.8854C36.2105 89.8861 36.2103 89.8863 36.21 89.8867C36.21 89.8867 36.2101 89.8865 36.9998 90.5C37.7895 91.1135 37.79 91.1128 37.7907 91.112C37.7912 91.1114 37.7921 91.1102 37.793 91.109C37.7948 91.1066 37.7974 91.1033 37.8007 91.0991C37.8072 91.0906 37.8165 91.0784 37.8286 91.0627C37.8526 91.0311 37.8875 90.9851 37.9325 90.925C38.0226 90.8048 38.1532 90.628 38.3191 90.3976C38.6507 89.9367 39.1233 89.2609 39.6933 88.3925C40.8329 86.6563 42.3642 84.1475 43.9384 81.0464C47.0825 74.8531 50.4217 66.2517 51.1223 56.6981C51.8245 47.1239 49.8744 36.5943 42.4426 26.6212C35.0222 16.6635 22.2031 7.34894 1.33008 0.0559624L0.670391 1.94403Z" fill="#FDD33F"/>
</svg>
