<svg width="162" height="165" viewBox="0 0 162 165" fill="none" xmlns="http://www.w3.org/2000/svg">
<path d="M161.71 157.704C162.099 157.312 162.096 156.678 161.704 156.29L155.312 149.953C154.92 149.565 154.287 149.567 153.898 149.96C153.509 150.352 153.512 150.985 153.904 151.374L159.586 157.006L153.954 162.687C153.565 163.08 153.567 163.713 153.96 164.102C154.352 164.49 154.985 164.488 155.374 164.095L161.71 157.704ZM21.3664 0.499559C-1.40373 39.8929 -4.2107 69.6008 4.70156 91.9781C13.6011 114.323 34.0727 129.063 57.1979 138.795C80.3389 148.535 106.297 153.331 126.44 155.696C136.517 156.879 145.152 157.455 151.269 157.735C154.329 157.875 156.759 157.941 158.426 157.973C159.259 157.988 159.902 157.995 160.338 157.998C160.555 157.999 160.721 158 160.833 158C160.889 158 160.931 158 160.96 158C160.974 158 160.985 158 160.993 158C160.996 158 160.999 158 161.001 158C161.003 158 161.004 158 161 157C160.996 156 160.995 156 160.994 156C160.992 156 160.99 156 160.987 156C160.98 156 160.97 156 160.957 156C160.93 156 160.889 156 160.835 156C160.727 156 160.565 155.999 160.351 155.998C159.923 155.995 159.289 155.988 158.463 155.973C156.813 155.942 154.401 155.876 151.361 155.737C145.281 155.459 136.695 154.886 126.673 153.709C106.617 151.355 80.8681 146.588 57.9737 136.952C35.0635 127.31 15.1715 112.861 6.55963 91.2381C-2.03952 69.6469 0.494383 40.6056 23.0979 1.50043L21.3664 0.499559Z" fill="#FDD33F"/>
</svg>
