<svg width="398" height="342" viewBox="0 0 398 342" fill="none" xmlns="http://www.w3.org/2000/svg">
<circle cx="171" cy="171" r="170.5" stroke="white"/>
<path d="M45.156 182.196C43.6067 182.196 42.216 181.869 40.984 181.216C39.752 180.563 38.7907 179.657 38.1 178.5C37.4093 177.324 37.064 175.999 37.064 174.524C37.064 173.049 37.4093 171.733 38.1 170.576C38.7907 169.419 39.7427 168.513 40.956 167.86C42.188 167.207 43.588 166.88 45.156 166.88C46.6307 166.88 47.9187 167.179 49.02 167.776C50.14 168.373 50.98 169.232 51.54 170.352L48.852 171.92C48.4227 171.229 47.8813 170.716 47.228 170.38C46.5933 170.025 45.8933 169.848 45.128 169.848C43.8213 169.848 42.7387 170.277 41.88 171.136C41.0213 171.976 40.592 173.105 40.592 174.524C40.592 175.943 41.012 177.081 41.852 177.94C42.7107 178.78 43.8027 179.2 45.128 179.2C45.8933 179.2 46.5933 179.032 47.228 178.696C47.8813 178.341 48.4227 177.819 48.852 177.128L51.54 178.696C50.9613 179.816 50.112 180.684 48.992 181.3C47.8907 181.897 46.612 182.196 45.156 182.196ZM69.3215 182V172.088L64.2815 180.432H62.7695L57.8135 172.06V182H54.6215V167.048H58.2895L63.6095 176.4L69.1815 167.048H72.4575L72.4855 182H69.3215ZM83.8441 182.196C82.3321 182.196 80.9695 181.869 79.7561 181.216C78.5428 180.563 77.5908 179.657 76.9001 178.5C76.2281 177.324 75.8921 175.999 75.8921 174.524C75.8921 173.049 76.2281 171.733 76.9001 170.576C77.5908 169.419 78.5428 168.513 79.7561 167.86C80.9695 167.207 82.3321 166.88 83.8441 166.88C85.3748 166.88 86.7468 167.207 87.9601 167.86C89.1735 168.513 90.1161 169.419 90.7881 170.576C91.4788 171.733 91.8241 173.049 91.8241 174.524C91.8241 175.999 91.4788 177.324 90.7881 178.5C90.1161 179.657 89.1735 180.563 87.9601 181.216C86.7468 181.869 85.3748 182.196 83.8441 182.196ZM83.8441 179.2C85.1321 179.2 86.1961 178.771 87.0361 177.912C87.8761 177.053 88.2961 175.924 88.2961 174.524C88.2961 173.124 87.8761 171.995 87.0361 171.136C86.1961 170.277 85.1321 169.848 83.8441 169.848C82.5561 169.848 81.4921 170.277 80.6521 171.136C79.8308 171.995 79.4201 173.124 79.4201 174.524C79.4201 175.924 79.8308 177.053 80.6521 177.912C81.4921 178.771 82.5561 179.2 83.8441 179.2ZM106.579 170.016H101.343V182H97.8428V170.016H92.5788V167.048H106.579V170.016ZM117.406 166.88C118.862 166.88 120.159 167.197 121.298 167.832C122.455 168.467 123.36 169.363 124.014 170.52C124.667 171.677 124.994 173.012 124.994 174.524C124.994 176.036 124.667 177.38 124.014 178.556C123.36 179.713 122.455 180.609 121.298 181.244C120.159 181.879 118.862 182.196 117.406 182.196C115.39 182.196 113.794 181.524 112.618 180.18V187.432H109.118V167.048H112.45V169.008C113.028 168.299 113.738 167.767 114.578 167.412C115.436 167.057 116.379 166.88 117.406 166.88ZM117.014 179.2C118.302 179.2 119.356 178.771 120.178 177.912C121.018 177.053 121.438 175.924 121.438 174.524C121.438 173.124 121.018 171.995 120.178 171.136C119.356 170.277 118.302 169.848 117.014 169.848C116.174 169.848 115.418 170.044 114.746 170.436C114.074 170.809 113.542 171.351 113.15 172.06C112.758 172.769 112.562 173.591 112.562 174.524C112.562 175.457 112.758 176.279 113.15 176.988C113.542 177.697 114.074 178.248 114.746 178.64C115.418 179.013 116.174 179.2 117.014 179.2ZM142.477 174.608C142.477 174.851 142.458 175.196 142.421 175.644H130.689C130.894 176.745 131.426 177.623 132.285 178.276C133.162 178.911 134.245 179.228 135.533 179.228C137.176 179.228 138.529 178.687 139.593 177.604L141.469 179.76C140.797 180.563 139.948 181.169 138.921 181.58C137.894 181.991 136.737 182.196 135.449 182.196C133.806 182.196 132.36 181.869 131.109 181.216C129.858 180.563 128.888 179.657 128.197 178.5C127.525 177.324 127.189 175.999 127.189 174.524C127.189 173.068 127.516 171.761 128.169 170.604C128.841 169.428 129.765 168.513 130.941 167.86C132.117 167.207 133.442 166.88 134.917 166.88C136.373 166.88 137.67 167.207 138.809 167.86C139.966 168.495 140.862 169.4 141.497 170.576C142.15 171.733 142.477 173.077 142.477 174.608ZM134.917 169.68C133.797 169.68 132.845 170.016 132.061 170.688C131.296 171.341 130.829 172.219 130.661 173.32H139.145C138.996 172.237 138.538 171.36 137.773 170.688C137.008 170.016 136.056 169.68 134.917 169.68ZM157.602 170.016H152.366V182H148.866V170.016H143.602V167.048H157.602V170.016ZM167.645 171.976C169.549 171.976 171.005 172.405 172.013 173.264C173.04 174.123 173.553 175.336 173.553 176.904C173.553 178.547 172.993 179.816 171.873 180.712C170.753 181.608 169.176 182.047 167.141 182.028L160.141 182V167.048H163.641V171.948L167.645 171.976ZM166.833 179.452C167.86 179.471 168.644 179.256 169.185 178.808C169.726 178.36 169.997 177.707 169.997 176.848C169.997 176.008 169.736 175.392 169.213 175C168.69 174.608 167.897 174.403 166.833 174.384L163.641 174.356V179.424L166.833 179.452ZM192.46 167.776C193.878 167.776 195.129 168.084 196.212 168.7C197.294 169.297 198.134 170.137 198.732 171.22C199.348 172.303 199.656 173.544 199.656 174.944C199.656 176.381 199.32 177.66 198.648 178.78C197.976 179.881 197.033 180.74 195.82 181.356C194.606 181.972 193.225 182.28 191.676 182.28C189.081 182.28 187.074 181.421 185.656 179.704C184.237 177.987 183.528 175.513 183.528 172.284C183.528 169.279 184.172 166.899 185.46 165.144C186.748 163.389 188.717 162.232 191.368 161.672L198.312 160.188L198.816 163.324L192.516 164.612C190.705 164.985 189.352 165.62 188.456 166.516C187.56 167.412 187.037 168.672 186.888 170.296C187.56 169.493 188.372 168.877 189.324 168.448C190.276 168 191.321 167.776 192.46 167.776ZM191.76 179.452C193.048 179.452 194.084 179.041 194.868 178.22C195.67 177.38 196.072 176.316 196.072 175.028C196.072 173.74 195.67 172.704 194.868 171.92C194.084 171.136 193.048 170.744 191.76 170.744C190.453 170.744 189.398 171.136 188.596 171.92C187.793 172.704 187.392 173.74 187.392 175.028C187.392 176.335 187.793 177.399 188.596 178.22C189.417 179.041 190.472 179.452 191.76 179.452ZM209.707 182.196C208.195 182.196 206.833 181.869 205.619 181.216C204.406 180.563 203.454 179.657 202.763 178.5C202.091 177.324 201.755 175.999 201.755 174.524C201.755 173.049 202.091 171.733 202.763 170.576C203.454 169.419 204.406 168.513 205.619 167.86C206.833 167.207 208.195 166.88 209.707 166.88C211.238 166.88 212.61 167.207 213.823 167.86C215.037 168.513 215.979 169.419 216.651 170.576C217.342 171.733 217.687 173.049 217.687 174.524C217.687 175.999 217.342 177.324 216.651 178.5C215.979 179.657 215.037 180.563 213.823 181.216C212.61 181.869 211.238 182.196 209.707 182.196ZM209.707 179.2C210.995 179.2 212.059 178.771 212.899 177.912C213.739 177.053 214.159 175.924 214.159 174.524C214.159 173.124 213.739 171.995 212.899 171.136C212.059 170.277 210.995 169.848 209.707 169.848C208.419 169.848 207.355 170.277 206.515 171.136C205.694 171.995 205.283 173.124 205.283 174.524C205.283 175.924 205.694 177.053 206.515 177.912C207.355 178.771 208.419 179.2 209.707 179.2ZM234.533 167.048V182H231.033V170.016H225.433L225.293 172.984C225.2 174.963 225.013 176.624 224.733 177.968C224.472 179.293 224.014 180.348 223.361 181.132C222.726 181.897 221.849 182.28 220.729 182.28C220.206 182.28 219.562 182.177 218.797 181.972L218.965 179.032C219.226 179.088 219.45 179.116 219.637 179.116C220.346 179.116 220.878 178.836 221.233 178.276C221.588 177.697 221.812 177.016 221.905 176.232C222.017 175.429 222.11 174.291 222.185 172.816L222.437 167.048H234.533ZM246.751 171.976C248.655 171.976 250.111 172.405 251.119 173.264C252.145 174.123 252.659 175.336 252.659 176.904C252.659 178.547 252.099 179.816 250.979 180.712C249.859 181.608 248.281 182.047 246.247 182.028L239.247 182V167.048H242.747V171.948L246.751 171.976ZM245.939 179.452C246.965 179.471 247.749 179.256 248.291 178.808C248.832 178.36 249.103 177.707 249.103 176.848C249.103 176.008 248.841 175.392 248.319 175C247.796 174.608 247.003 174.403 245.939 174.384L242.747 174.356V179.424L245.939 179.452ZM277.771 167.048V182H255.735V167.048H259.235V179.032H265.031V167.048H268.531V179.032H274.271V167.048H277.771ZM296.477 174.608C296.477 174.851 296.458 175.196 296.421 175.644H284.689C284.894 176.745 285.426 177.623 286.285 178.276C287.162 178.911 288.245 179.228 289.533 179.228C291.176 179.228 292.529 178.687 293.593 177.604L295.469 179.76C294.797 180.563 293.948 181.169 292.921 181.58C291.894 181.991 290.737 182.196 289.449 182.196C287.806 182.196 286.36 181.869 285.109 181.216C283.858 180.563 282.888 179.657 282.197 178.5C281.525 177.324 281.189 175.999 281.189 174.524C281.189 173.068 281.516 171.761 282.169 170.604C282.841 169.428 283.765 168.513 284.941 167.86C286.117 167.207 287.442 166.88 288.917 166.88C290.373 166.88 291.67 167.207 292.809 167.86C293.966 168.495 294.862 169.4 295.497 170.576C296.15 171.733 296.477 173.077 296.477 174.608ZM288.917 169.68C287.797 169.68 286.845 170.016 286.061 170.688C285.296 171.341 284.829 172.219 284.661 173.32H293.145C292.996 172.237 292.538 171.36 291.773 170.688C291.008 170.016 290.056 169.68 288.917 169.68ZM316.331 166.88C317.787 166.88 319.085 167.197 320.223 167.832C321.381 168.467 322.286 169.363 322.939 170.52C323.593 171.677 323.919 173.012 323.919 174.524C323.919 176.036 323.593 177.38 322.939 178.556C322.286 179.713 321.381 180.609 320.223 181.244C319.085 181.879 317.787 182.196 316.331 182.196C314.315 182.196 312.719 181.524 311.543 180.18V187.432H308.043V167.048H311.375V169.008C311.954 168.299 312.663 167.767 313.503 167.412C314.362 167.057 315.305 166.88 316.331 166.88ZM315.939 179.2C317.227 179.2 318.282 178.771 319.103 177.912C319.943 177.053 320.363 175.924 320.363 174.524C320.363 173.124 319.943 171.995 319.103 171.136C318.282 170.277 317.227 169.848 315.939 169.848C315.099 169.848 314.343 170.044 313.671 170.436C312.999 170.809 312.467 171.351 312.075 172.06C311.683 172.769 311.487 173.591 311.487 174.524C311.487 175.457 311.683 176.279 312.075 176.988C312.467 177.697 312.999 178.248 313.671 178.64C314.343 179.013 315.099 179.2 315.939 179.2ZM332.783 166.88C334.986 166.88 336.666 167.412 337.823 168.476C338.999 169.521 339.587 171.108 339.587 173.236V182H336.283V180.18C335.854 180.833 335.238 181.337 334.435 181.692C333.651 182.028 332.699 182.196 331.579 182.196C330.459 182.196 329.479 182.009 328.639 181.636C327.799 181.244 327.146 180.712 326.679 180.04C326.231 179.349 326.007 178.575 326.007 177.716C326.007 176.372 326.502 175.299 327.491 174.496C328.499 173.675 330.077 173.264 332.223 173.264H336.087V173.04C336.087 171.995 335.77 171.192 335.135 170.632C334.519 170.072 333.595 169.792 332.363 169.792C331.523 169.792 330.693 169.923 329.871 170.184C329.069 170.445 328.387 170.809 327.827 171.276L326.455 168.728C327.239 168.131 328.182 167.673 329.283 167.356C330.385 167.039 331.551 166.88 332.783 166.88ZM332.307 179.648C333.185 179.648 333.959 179.452 334.631 179.06C335.322 178.649 335.807 178.071 336.087 177.324V175.588H332.475C330.459 175.588 329.451 176.251 329.451 177.576C329.451 178.211 329.703 178.715 330.207 179.088C330.711 179.461 331.411 179.648 332.307 179.648ZM352.01 167.776C353.429 167.776 354.68 168.084 355.762 168.7C356.845 169.297 357.685 170.137 358.282 171.22C358.898 172.303 359.206 173.544 359.206 174.944C359.206 176.381 358.87 177.66 358.198 178.78C357.526 179.881 356.584 180.74 355.37 181.356C354.157 181.972 352.776 182.28 351.226 182.28C348.632 182.28 346.625 181.421 345.206 179.704C343.788 177.987 343.078 175.513 343.078 172.284C343.078 169.279 343.722 166.899 345.01 165.144C346.298 163.389 348.268 162.232 350.918 161.672L357.862 160.188L358.366 163.324L352.066 164.612C350.256 164.985 348.902 165.62 348.006 166.516C347.11 167.412 346.588 168.672 346.438 170.296C347.11 169.493 347.922 168.877 348.874 168.448C349.826 168 350.872 167.776 352.01 167.776ZM351.31 179.452C352.598 179.452 353.634 179.041 354.418 178.22C355.221 177.38 355.622 176.316 355.622 175.028C355.622 173.74 355.221 172.704 354.418 171.92C353.634 171.136 352.598 170.744 351.31 170.744C350.004 170.744 348.949 171.136 348.146 171.92C347.344 172.704 346.942 173.74 346.942 175.028C346.942 176.335 347.344 177.399 348.146 178.22C348.968 179.041 350.022 179.452 351.31 179.452ZM369.258 182.196C367.746 182.196 366.384 181.869 365.17 181.216C363.957 180.563 363.005 179.657 362.314 178.5C361.642 177.324 361.306 175.999 361.306 174.524C361.306 173.049 361.642 171.733 362.314 170.576C363.005 169.419 363.957 168.513 365.17 167.86C366.384 167.207 367.746 166.88 369.258 166.88C370.789 166.88 372.161 167.207 373.374 167.86C374.588 168.513 375.53 169.419 376.202 170.576C376.893 171.733 377.238 173.049 377.238 174.524C377.238 175.999 376.893 177.324 376.202 178.5C375.53 179.657 374.588 180.563 373.374 181.216C372.161 181.869 370.789 182.196 369.258 182.196ZM369.258 179.2C370.546 179.2 371.61 178.771 372.45 177.912C373.29 177.053 373.71 175.924 373.71 174.524C373.71 173.124 373.29 171.995 372.45 171.136C371.61 170.277 370.546 169.848 369.258 169.848C367.97 169.848 366.906 170.277 366.066 171.136C365.245 171.995 364.834 173.124 364.834 174.524C364.834 175.924 365.245 177.053 366.066 177.912C366.906 178.771 367.97 179.2 369.258 179.2ZM391.993 170.016H386.757V182H383.257V170.016H377.993V167.048H391.993V170.016ZM394.201 182.196C393.566 182.196 393.025 181.981 392.577 181.552C392.129 181.104 391.905 180.544 391.905 179.872C391.905 179.181 392.12 178.621 392.549 178.192C392.997 177.763 393.548 177.548 394.201 177.548C394.854 177.548 395.396 177.763 395.825 178.192C396.273 178.621 396.497 179.181 396.497 179.872C396.497 180.544 396.273 181.104 395.825 181.552C395.377 181.981 394.836 182.196 394.201 182.196Z" fill="white"/>
</svg>
