<svg width="366" height="281" viewBox="0 0 366 281" fill="none" xmlns="http://www.w3.org/2000/svg">
<path d="M315.476 252.1C314.571 253.86 312.7 255.145 309.826 255.918C306.954 256.69 303.149 256.93 298.499 256.647C289.204 256.083 276.656 253.441 261.727 248.971C231.876 240.034 192.604 223.817 150.991 202.435C109.378 181.052 73.3263 158.565 48.6798 139.5C36.3533 129.965 26.8998 121.302 21.0286 114.073C18.0917 110.457 16.0706 107.224 15.0263 104.44C13.9813 101.654 13.937 99.3833 14.8413 97.6234C15.7456 95.8635 17.6172 94.5777 20.4907 93.8051C23.3626 93.0329 27.168 92.7935 31.8176 93.0759C41.1129 93.6406 53.6609 96.282 68.5901 100.752C98.4406 109.689 137.713 125.906 179.326 147.289C220.94 168.671 256.991 191.158 281.637 210.223C293.964 219.758 303.417 228.422 309.289 235.65C312.225 239.266 314.246 242.499 315.291 245.283C316.336 248.069 316.38 250.34 315.476 252.1Z" fill="black" stroke="white"/>
<path d="M333.3 217.411C332.396 219.171 330.524 220.457 327.651 221.229C324.779 222.002 320.973 222.241 316.324 221.958C307.028 221.394 294.48 218.752 279.551 214.283C249.701 205.345 210.428 189.128 168.815 167.746C127.202 146.364 91.1505 123.877 66.504 104.812C54.1775 95.2766 44.7239 86.6129 38.8527 79.3844C35.9159 75.7687 33.8948 72.5355 32.8505 69.751C31.8055 66.9649 31.7612 64.6946 32.6655 62.9347C33.5698 61.1748 35.4414 59.8889 38.3149 59.1163C41.1868 58.3442 44.9922 58.1048 49.6418 58.3872C58.9371 58.9519 71.4851 61.5933 86.4143 66.0631C116.265 75.0004 155.538 91.2176 197.151 112.6C238.764 133.982 274.815 156.469 299.461 175.534C311.788 185.069 321.241 193.733 327.113 200.961C330.05 204.577 332.071 207.81 333.115 210.595C334.16 213.381 334.204 215.651 333.3 217.411Z" fill="black" stroke="white"/>
<path d="M351.124 182.722C350.22 184.482 348.348 185.768 345.475 186.541C342.603 187.313 338.797 187.552 334.148 187.27C324.853 186.705 312.305 184.064 297.375 179.594C267.525 170.657 228.252 154.44 186.639 133.057C145.026 111.675 108.975 89.1883 84.3282 70.1232C72.0017 60.5881 62.5481 51.9244 56.6769 44.6959C53.7401 41.0802 51.719 37.847 50.6747 35.0625C49.6297 32.2765 49.5854 30.0061 50.4897 28.2462C51.394 26.4863 53.2656 25.2005 56.1391 24.4279C59.011 23.6557 62.8164 23.4163 67.466 23.6987C76.7613 24.2634 89.3093 26.9048 104.239 31.3746C134.089 40.312 173.362 56.5291 214.975 77.9114C256.588 99.2936 292.639 121.78 317.286 140.846C329.612 150.381 339.066 159.044 344.937 166.273C347.874 169.889 349.895 173.122 350.939 175.906C351.984 178.692 352.028 180.963 351.124 182.722Z" fill="black" stroke="white"/>
</svg>
