<svg width="143" height="134" viewBox="0 0 143 134" fill="none" xmlns="http://www.w3.org/2000/svg">
<path d="M113.893 123.177C113.453 123.699 112.695 124.022 111.533 124.063C110.374 124.105 108.883 123.862 107.086 123.331C103.495 122.27 98.7963 120.096 93.3065 116.975C82.3341 110.737 68.2885 100.766 53.7779 88.5392C39.2673 76.3124 27.0588 64.1614 19.0502 54.4059C15.0433 49.5249 12.104 45.2632 10.4494 41.9042C9.62132 40.2229 9.1288 38.7949 8.973 37.6453C8.81694 36.4939 9.00613 35.6921 9.44656 35.1694C9.88699 34.6467 10.645 34.3243 11.8062 34.2828C12.9656 34.2414 14.4565 34.4846 16.2539 35.0155C19.8448 36.0764 24.5433 38.2503 30.0332 41.3714C41.0056 47.6095 55.0511 57.5802 69.5618 69.8069C84.0724 82.0337 96.2808 94.1847 104.289 103.94C108.296 108.821 111.236 113.083 112.89 116.442C113.718 118.123 114.211 119.551 114.367 120.701C114.523 121.852 114.334 122.654 113.893 123.177Z" fill="black" stroke="white"/>
<path d="M124.063 111.107C123.623 111.63 122.865 111.952 121.703 111.994C120.544 112.035 119.053 111.792 117.256 111.261C113.665 110.2 108.966 108.026 103.476 104.905C92.504 98.6672 78.4584 88.6965 63.9478 76.4697C49.4372 64.243 37.2288 52.0919 29.2201 42.3365C25.2132 37.4555 22.2739 33.1938 20.6194 29.8347C19.7912 28.1534 19.2987 26.7254 19.1429 25.5758C18.9869 24.4244 19.176 23.6226 19.6165 23.0999C20.0569 22.5772 20.815 22.2548 21.9762 22.2133C23.1355 22.1719 24.6264 22.4151 26.4238 22.9461C30.0148 24.0069 34.7133 26.1809 40.2031 29.302C51.1755 35.54 65.2211 45.5107 79.7317 57.7375C94.2423 69.9642 106.451 82.1153 114.459 91.8707C118.466 96.7517 121.406 101.013 123.06 104.372C123.888 106.054 124.381 107.482 124.537 108.631C124.693 109.783 124.503 110.585 124.063 111.107Z" fill="black" stroke="white"/>
<path d="M134.233 99.0379C133.793 99.5606 133.035 99.883 131.874 99.9245C130.714 99.9659 129.224 99.7228 127.426 99.1918C123.835 98.1309 119.137 95.957 113.647 92.8359C102.674 86.5978 88.6288 76.6271 74.1182 64.4004C59.6076 52.1736 47.3992 40.0226 39.3906 30.2671C35.3836 25.3862 32.4443 21.1244 30.7898 17.7654C29.9617 16.0841 29.4691 14.6561 29.3133 13.5065C29.1573 12.3551 29.3465 11.5533 29.7869 11.0306C30.2273 10.5079 30.9854 10.1855 32.1466 10.144C33.306 10.1026 34.7968 10.3458 36.5942 10.8767C40.1852 11.9376 44.8837 14.1115 50.3735 17.2326C61.3459 23.4707 75.3915 33.4414 89.9021 45.6682C104.413 57.8949 116.621 70.0459 124.63 79.8014C128.637 84.6824 131.576 88.9441 133.231 92.3031C134.059 93.9844 134.551 95.4124 134.707 96.562C134.863 97.7135 134.674 98.5152 134.233 99.0379Z" fill="black" stroke="white"/>
</svg>
